Figtree-LightItalic.ufo
<glyph name="exclam" format="2">
  <advance width="292"/>
  <unicode hex="0021"/>
  <outline>
    <contour>
      <point x="104" y="193" type="line"/>
      <point x="168" y="193" type="line"/>
      <point x="253" y="700" type="line"/>
      <point x="189" y="700" type="line"/>
    </contour>
    <contour>
      <point x="106" y="-14" type="curve" smooth="yes"/>
      <point x="129" y="-14"/>
      <point x="151" y="5"/>
      <point x="155" y="28" type="curve" smooth="yes"/>
      <point x="159" y="55"/>
      <point x="140" y="78"/>
      <point x="113" y="78" type="curve" smooth="yes"/>
      <point x="90" y="78"/>
      <point x="68" y="59"/>
      <point x="64" y="36" type="curve" smooth="yes"/>
      <point x="60" y="9"/>
      <point x="79" y="-14"/>
    </contour>
  </outline>
</glyph>
<glyph name="numbersign" format="2">
  <advance width="629"/>
  <unicode hex="0023"/>
  <outline>
    <contour>
      <point x="307" y="0" type="line"/>
      <point x="359" y="0" type="line"/>
      <point x="587" y="700" type="line"/>
      <point x="534" y="700" type="line"/>
    </contour>
    <contour>
      <point x="2" y="200" type="line"/>
      <point x="565" y="200" type="line"/>
      <point x="578" y="242" type="line"/>
      <point x="15" y="242" type="line"/>
    </contour>
    <contour>
      <point x="77" y="0" type="line"/>
      <point x="129" y="0" type="line"/>
      <point x="357" y="700" type="line"/>
      <point x="304" y="700" type="line"/>
    </contour>
    <contour>
      <point x="86" y="458" type="line"/>
      <point x="648" y="458" type="line"/>
      <point x="661" y="500" type="line"/>
      <point x="99" y="500" type="line"/>
    </contour>
  </outline>
</glyph>
<glyph name="dollar" format="2">
  <advance width="566"/>
  <unicode hex="0024"/>
  <outline>
    <contour>
      <point x="260" y="23" type="curve" smooth="yes"/>
      <point x="403" y="23"/>
      <point x="487" y="102"/>
      <point x="503" y="196" type="curve" smooth="yes"/>
      <point x="516" y="273"/>
      <point x="457" y="351"/>
      <point x="336" y="380" type="curve" smooth="yes"/>
      <point x="273" y="395" type="line" smooth="yes"/>
      <point x="213" y="409"/>
      <point x="177" y="438"/>
      <point x="188" y="501" type="curve" smooth="yes"/>
      <point x="200" y="572"/>
      <point x="264" y="619"/>
      <point x="351" y="619" type="curve" smooth="yes"/>
      <point x="430" y="619"/>
      <point x="484" y="583"/>
      <point x="499" y="520" type="curve"/>
      <point x="558" y="539" type="line"/>
      <point x="549" y="601"/>
      <point x="487" y="677"/>
      <point x="362" y="677" type="curve" smooth="yes"/>
      <point x="225" y="677"/>
      <point x="143" y="612"/>
      <point x="124" y="502" type="curve" smooth="yes"/>
      <point x="108" y="406"/>
      <point x="172" y="355"/>
      <point x="253" y="333" type="curve" smooth="yes"/>
      <point x="313" y="317" type="line" smooth="yes"/>
      <point x="397" y="295"/>
      <point x="449" y="259"/>
      <point x="439" y="197" type="curve" smooth="yes"/>
      <point x="428" y="128"/>
      <point x="356" y="81"/>
      <point x="247" y="81" type="curve" smooth="yes"/>
      <point x="164" y="81"/>
      <point x="111" y="126"/>
      <point x="99" y="181" type="curve"/>
      <point x="41" y="163" type="line"/>
      <point x="54" y="92"/>
      <point x="116" y="23"/>
    </contour>
    <contour>
      <point x="206" y="-103" type="line"/>
      <point x="265" y="-103" type="line"/>
      <point x="413" y="780" type="line"/>
      <point x="354" y="780" type="line"/>
    </contour>
  </outline>
</glyph>
<glyph name="percent" format="2">
  <advance width="775"/>
  <unicode hex="0025"/>
  <outline>
    <contour>
      <point x="57" y="0" type="line"/>
      <point x="134" y="0" type="line"/>
      <point x="751" y="700" type="line"/>
      <point x="672" y="700" type="line"/>
    </contour>
    <contour>
      <point x="230" y="390" type="curve" smooth="yes"/>
      <point x="318" y="390"/>
      <point x="391" y="456"/>
      <point x="406" y="549" type="curve" smooth="yes"/>
      <point x="422" y="646"/>
      <point x="369" y="716"/>
      <point x="277" y="716" type="curve" smooth="yes"/>
      <point x="189" y="716"/>
      <point x="117" y="650"/>
      <point x="101" y="557" type="curve" smooth="yes"/>
      <point x="85" y="460"/>
      <point x="138" y="390"/>
    </contour>
    <contour>
      <point x="231" y="444" type="curve" smooth="yes"/>
      <point x="179" y="444"/>
      <point x="150" y="488"/>
      <point x="160" y="549" type="curve" smooth="yes"/>
      <point x="171" y="614"/>
      <point x="220" y="661"/>
      <point x="276" y="661" type="curve" smooth="yes"/>
      <point x="328" y="661"/>
      <point x="358" y="618"/>
      <point x="347" y="557" type="curve" smooth="yes"/>
      <point x="336" y="492"/>
      <point x="287" y="444"/>
    </contour>
    <contour>
      <point x="531" y="-16" type="curve" smooth="yes"/>
      <point x="619" y="-16"/>
      <point x="692" y="50"/>
      <point x="707" y="143" type="curve" smooth="yes"/>
      <point x="723" y="240"/>
      <point x="670" y="310"/>
      <point x="578" y="310" type="curve" smooth="yes"/>
      <point x="490" y="310"/>
      <point x="418" y="244"/>
      <point x="402" y="151" type="curve" smooth="yes"/>
      <point x="386" y="54"/>
      <point x="439" y="-16"/>
    </contour>
    <contour>
      <point x="533" y="38" type="curve" smooth="yes"/>
      <point x="481" y="38"/>
      <point x="451" y="82"/>
      <point x="461" y="143" type="curve" smooth="yes"/>
      <point x="472" y="208"/>
      <point x="521" y="256"/>
      <point x="577" y="256" type="curve" smooth="yes"/>
      <point x="629" y="256"/>
      <point x="659" y="212"/>
      <point x="648" y="151" type="curve" smooth="yes"/>
      <point x="638" y="86"/>
      <point x="589" y="38"/>
    </contour>
  </outline>
</glyph>
<glyph name="ampersand" format="2">
  <advance width="642"/>
  <unicode hex="0026"/>
  <outline>
    <contour>
      <point x="221" y="-15" type="curve" smooth="yes"/>
      <point x="406" y="-15"/>
      <point x="558" y="120"/>
      <point x="589" y="309" type="curve"/>
      <point x="526" y="309" type="line"/>
      <point x="500" y="153"/>
      <point x="373" y="43"/>
      <point x="222" y="43" type="curve" smooth="yes"/>
      <point x="144" y="43"/>
      <point x="98" y="92"/>
      <point x="110" y="163" type="curve" smooth="yes"/>
      <point x="123" y="244"/>
      <point x="182" y="283"/>
      <point x="239" y="318" type="curve" smooth="yes"/>
      <point x="322" y="369" type="line" smooth="yes"/>
      <point x="409" y="423"/>
      <point x="488" y="482"/>
      <point x="501" y="559" type="curve" smooth="yes"/>
      <point x="516" y="652"/>
      <point x="452" y="715"/>
      <point x="356" y="715" type="curve" smooth="yes"/>
      <point x="270" y="715"/>
      <point x="192" y="652"/>
      <point x="178" y="569" type="curve" smooth="yes"/>
      <point x="168" y="509"/>
      <point x="199" y="463"/>
      <point x="233" y="411" type="curve"/>
      <point x="324" y="274" type="line"/>
      <point x="504" y="0" type="line"/>
      <point x="584" y="0" type="line"/>
      <point x="383" y="306" type="line"/>
      <point x="287" y="448" type="line" smooth="yes"/>
      <point x="256" y="494"/>
      <point x="234" y="521"/>
      <point x="241" y="561" type="curve" smooth="yes"/>
      <point x="250" y="614"/>
      <point x="301" y="657"/>
      <point x="354" y="657" type="curve" smooth="yes"/>
      <point x="406" y="657"/>
      <point x="439" y="629"/>
      <point x="439" y="584" type="curve" smooth="yes"/>
      <point x="439" y="527"/>
      <point x="379" y="474"/>
      <point x="293" y="421" type="curve" smooth="yes"/>
      <point x="209" y="369" type="line" smooth="yes"/>
      <point x="130" y="320"/>
      <point x="62" y="263"/>
      <point x="47" y="171" type="curve" smooth="yes"/>
      <point x="29" y="62"/>
      <point x="102" y="-15"/>
    </contour>
  </outline>
</glyph>
<glyph name="quotesingle" format="2">
  <advance width="182"/>
  <unicode hex="0027"/>
  <outline>
    <contour>
      <point x="105" y="490" type="line"/>
      <point x="157" y="490" type="line"/>
      <point x="200" y="716" type="line"/>
      <point x="138" y="716" type="line"/>
    </contour>
  </outline>
</glyph>
<glyph name="parenleft" format="2">
  <advance width="341"/>
  <unicode hex="0028"/>
  <outline>
    <contour>
      <point x="169" y="-99" type="curve"/>
      <point x="230" y="-101" type="line"/>
      <point x="159" y="28"/>
      <point x="113" y="183"/>
      <point x="140" y="346" type="curve" smooth="yes"/>
      <point x="168" y="513"/>
      <point x="268" y="670"/>
      <point x="383" y="799" type="curve"/>
      <point x="317" y="801" type="line"/>
      <point x="204" y="679"/>
      <point x="106" y="525"/>
      <point x="77" y="354" type="curve" smooth="yes"/>
      <point x="48" y="179"/>
      <point x="96" y="23"/>
    </contour>
  </outline>
</glyph>
<glyph name="asterisk" format="2">
  <advance width="478"/>
  <unicode hex="002A"/>
  <outline>
    <contour>
      <point x="266" y="548" type="line"/>
      <point x="314" y="548" type="line"/>
      <point x="348" y="716" type="line"/>
      <point x="288" y="716" type="line"/>
    </contour>
    <contour>
      <point x="294" y="525" type="line"/>
      <point x="462" y="571" type="line"/>
      <point x="453" y="628" type="line"/>
      <point x="287" y="571" type="line"/>
    </contour>
    <contour>
      <point x="344" y="397" type="line"/>
      <point x="397" y="432" type="line"/>
      <point x="315" y="565" type="line"/>
      <point x="272" y="537" type="line"/>
    </contour>
    <contour>
      <point x="191" y="394" type="line"/>
      <point x="308" y="533" type="line"/>
      <point x="272" y="562" type="line"/>
      <point x="147" y="430" type="line"/>
    </contour>
    <contour>
      <point x="279" y="526" type="line"/>
      <point x="302" y="572" type="line"/>
      <point x="153" y="630" type="line"/>
      <point x="124" y="572" type="line"/>
    </contour>
  </outline>
</glyph>
<glyph name="plus" format="2">
  <advance width="620"/>
  <unicode hex="002B"/>
  <outline>
    <contour>
      <point x="252" y="73" type="line"/>
      <point x="309" y="73" type="line"/>
      <point x="385" y="523" type="line"/>
      <point x="328" y="523" type="line"/>
    </contour>
    <contour>
      <point x="88" y="269" type="line"/>
      <point x="538" y="269" type="line"/>
      <point x="548" y="326" type="line"/>
      <point x="98" y="326" type="line"/>
    </contour>
  </outline>
</glyph>
<glyph name="comma" format="2">
  <advance width="214"/>
  <unicode hex="002C"/>
  <outline>
    <contour>
      <point x="-17" y="-116" type="line"/>
      <point x="40" y="-116" type="line"/>
      <point x="144" y="86" type="line"/>
      <point x="72" y="86" type="line"/>
    </contour>
  </outline>
</glyph>
<glyph name="hyphen" format="2">
  <advance width="420"/>
  <unicode hex="002D"/>
  <outline>
    <contour>
      <point x="63" y="269" type="line"/>
      <point x="363" y="269" type="line"/>
      <point x="373" y="326" type="line"/>
      <point x="73" y="326" type="line"/>
    </contour>
  </outline>
</glyph>
<glyph name="period" format="2">
  <advance width="192"/>
  <unicode hex="002E"/>
  <outline>
    <contour>
      <point x="56" y="-14" type="curve" smooth="yes"/>
      <point x="79" y="-14"/>
      <point x="101" y="5"/>
      <point x="105" y="28" type="curve" smooth="yes"/>
      <point x="109" y="55"/>
      <point x="90" y="78"/>
      <point x="63" y="78" type="curve" smooth="yes"/>
      <point x="40" y="78"/>
      <point x="18" y="59"/>
      <point x="14" y="36" type="curve" smooth="yes"/>
      <point x="10" y="9"/>
      <point x="29" y="-14"/>
    </contour>
  </outline>
</glyph>
<glyph name="slash" format="2">
  <advance width="373"/>
  <unicode hex="002F"/>
  <outline>
    <contour>
      <point x="-41" y="-84" type="line"/>
      <point x="28" y="-84" type="line"/>
      <point x="441" y="747" type="line"/>
      <point x="374" y="747" type="line"/>
    </contour>
  </outline>
</glyph>
<glyph name="zero" format="2">
  <advance width="638"/>
  <unicode hex="0030"/>
  <outline>
    <contour>
      <point x="279" y="-12" type="curve" smooth="yes"/>
      <point x="435" y="-12"/>
      <point x="569" y="136"/>
      <point x="604" y="346" type="curve" smooth="yes"/>
      <point x="640" y="560"/>
      <point x="552" y="712"/>
      <point x="392" y="712" type="curve" smooth="yes"/>
      <point x="236" y="712"/>
      <point x="103" y="564"/>
      <point x="67" y="354" type="curve" smooth="yes"/>
      <point x="32" y="140"/>
      <point x="119" y="-12"/>
    </contour>
    <contour>
      <point x="281" y="46" type="curve" smooth="yes"/>
      <point x="163" y="46"/>
      <point x="101" y="170"/>
      <point x="130" y="346" type="curve" smooth="yes"/>
      <point x="160" y="526"/>
      <point x="269" y="654"/>
      <point x="391" y="654" type="curve" smooth="yes"/>
      <point x="509" y="654"/>
      <point x="571" y="530"/>
      <point x="541" y="354" type="curve" smooth="yes"/>
      <point x="511" y="174"/>
      <point x="403" y="46"/>
    </contour>
  </outline>
</glyph>
<glyph name="one" format="2">
  <advance width="410"/>
  <unicode hex="0031"/>
  <outline>
    <contour>
      <point x="182" y="0" type="line"/>
      <point x="246" y="0" type="line"/>
      <point x="365" y="700" type="line"/>
      <point x="305" y="700" type="line"/>
      <point x="295" y="666" type="line"/>
    </contour>
    <contour>
      <point x="115" y="536" type="line"/>
      <point x="183" y="536"/>
      <point x="262" y="588"/>
      <point x="338" y="652" type="curve"/>
      <point x="303" y="701" type="line"/>
      <point x="247" y="646"/>
      <point x="159" y="594"/>
      <point x="121" y="594" type="curve"/>
    </contour>
  </outline>
</glyph>
<glyph name="two" format="2">
  <advance width="551"/>
  <unicode hex="0032"/>
  <outline>
    <contour>
      <point x="91" y="55" type="line"/>
      <point x="100" y="107"/>
      <point x="139" y="157"/>
      <point x="206" y="202" type="curve" smooth="yes"/>
      <point x="379" y="319" type="line"/>
      <point x="464" y="382"/>
      <point x="509" y="445"/>
      <point x="520" y="511" type="curve" smooth="yes"/>
      <point x="538" y="625"/>
      <point x="464" y="712"/>
      <point x="328" y="712" type="curve" smooth="yes"/>
      <point x="215" y="712"/>
      <point x="117" y="636"/>
      <point x="80" y="550" type="curve"/>
      <point x="143" y="532" type="line"/>
      <point x="171" y="594"/>
      <point x="241" y="654"/>
      <point x="333" y="654" type="curve" smooth="yes"/>
      <point x="420" y="654"/>
      <point x="468" y="593"/>
      <point x="456" y="519" type="curve" smooth="yes"/>
      <point x="447" y="467"/>
      <point x="402" y="407"/>
      <point x="342" y="367" type="curve"/>
      <point x="161" y="246" type="line"/>
      <point x="82" y="189"/>
      <point x="40" y="126"/>
      <point x="28" y="58" type="curve"/>
    </contour>
    <contour>
      <point x="18" y="0" type="line"/>
      <point x="444" y="0" type="line"/>
      <point x="454" y="58" type="line"/>
      <point x="77" y="58" type="line"/>
      <point x="28" y="58" type="line"/>
    </contour>
  </outline>
</glyph>
<glyph name="three" format="2">
  <advance width="539"/>
  <unicode hex="0033"/>
  <outline>
    <contour>
      <point x="224" y="-12" type="curve" smooth="yes"/>
      <point x="350" y="-12"/>
      <point x="459" y="70"/>
      <point x="479" y="192" type="curve" smooth="yes"/>
      <point x="503" y="331"/>
      <point x="393" y="407"/>
      <point x="223" y="407" type="curve" smooth="yes"/>
      <point x="215" y="407" type="line"/>
      <point x="206" y="351" type="line"/>
      <point x="218" y="351" type="line" smooth="yes"/>
      <point x="354" y="351"/>
      <point x="434" y="301"/>
      <point x="417" y="202" type="curve" smooth="yes"/>
      <point x="402" y="113"/>
      <point x="324" y="46"/>
      <point x="222" y="46" type="curve" smooth="yes"/>
      <point x="143" y="46"/>
      <point x="111" y="88"/>
      <point x="92" y="119" type="curve"/>
      <point x="39" y="81" type="line"/>
      <point x="70" y="38"/>
      <point x="127" y="-12"/>
    </contour>
    <contour>
      <point x="206" y="351" type="line"/>
      <point x="217" y="351" type="line" smooth="yes"/>
      <point x="376" y="351"/>
      <point x="498" y="416"/>
      <point x="517" y="528" type="curve" smooth="yes"/>
      <point x="534" y="630"/>
      <point x="457" y="712"/>
      <point x="335" y="712" type="curve" smooth="yes"/>
      <point x="253" y="712"/>
      <point x="187" y="678"/>
      <point x="137" y="628" type="curve"/>
      <point x="177" y="588" type="line"/>
      <point x="220" y="628"/>
      <point x="270" y="654"/>
      <point x="330" y="654" type="curve" smooth="yes"/>
      <point x="418" y="654"/>
      <point x="464" y="599"/>
      <point x="454" y="535" type="curve" smooth="yes"/>
      <point x="440" y="454"/>
      <point x="347" y="408"/>
      <point x="223" y="408" type="curve" smooth="yes"/>
      <point x="215" y="408" type="line"/>
    </contour>
  </outline>
</glyph>
<glyph name="four" format="2">
  <advance width="616"/>
  <unicode hex="0034"/>
  <outline>
    <contour>
      <point x="91" y="197" type="line"/>
      <point x="486" y="663" type="line"/>
      <point x="447" y="700" type="line"/>
      <point x="47" y="231" type="line"/>
    </contour>
    <contour>
      <point x="39" y="182" type="line"/>
      <point x="575" y="182" type="line"/>
      <point x="584" y="241" type="line"/>
      <point x="93" y="241" type="line"/>
      <point x="47" y="231" type="line"/>
    </contour>
    <contour>
      <point x="330" y="0" type="line"/>
      <point x="393" y="0" type="line"/>
      <point x="510" y="700" type="line"/>
      <point x="447" y="700" type="line"/>
      <point x="440" y="654" type="line"/>
    </contour>
  </outline>
</glyph>
<glyph name="five" format="2">
  <advance width="572"/>
  <unicode hex="0035"/>
  <outline>
    <contour>
      <point x="249" y="-12" type="curve" smooth="yes"/>
      <point x="383" y="-12"/>
      <point x="493" y="78"/>
      <point x="515" y="208" type="curve" smooth="yes"/>
      <point x="537" y="342"/>
      <point x="456" y="437"/>
      <point x="321" y="437" type="curve" smooth="yes"/>
      <point x="247" y="437"/>
      <point x="159" y="395"/>
      <point x="109" y="335" type="curve"/>
      <point x="171" y="335" type="line"/>
      <point x="264" y="698" type="line"/>
      <point x="200" y="698" type="line"/>
      <point x="191" y="642" type="line"/>
      <point x="556" y="642" type="line"/>
      <point x="565" y="700" type="line"/>
      <point x="200" y="700" type="line"/>
      <point x="109" y="335" type="line"/>
      <point x="166" y="320" type="line"/>
      <point x="201" y="354"/>
      <point x="264" y="381"/>
      <point x="320" y="381" type="curve" smooth="yes"/>
      <point x="416" y="381"/>
      <point x="471" y="315"/>
      <point x="454" y="216" type="curve" smooth="yes"/>
      <point x="437" y="114"/>
      <point x="354" y="44"/>
      <point x="251" y="44" type="curve" smooth="yes"/>
      <point x="189" y="44"/>
      <point x="133" y="71"/>
      <point x="89" y="135" type="curve"/>
      <point x="40" y="98" type="line"/>
      <point x="82" y="21"/>
      <point x="170" y="-12"/>
    </contour>
  </outline>
</glyph>
<glyph name="six" format="2">
  <advance width="560"/>
  <unicode hex="0036"/>
  <outline>
    <contour>
      <point x="258" y="-12" type="curve" smooth="yes"/>
      <point x="419" y="-12"/>
      <point x="527" y="115"/>
      <point x="527" y="251" type="curve" smooth="yes"/>
      <point x="527" y="352"/>
      <point x="445" y="437"/>
      <point x="325" y="437" type="curve" smooth="yes"/>
      <point x="228" y="437"/>
      <point x="144" y="386"/>
      <point x="98" y="302" type="curve"/>
      <point x="110" y="281" type="line"/>
      <point x="141" y="529"/>
      <point x="243" y="654"/>
      <point x="393" y="654" type="curve" smooth="yes"/>
      <point x="439" y="654"/>
      <point x="488" y="637"/>
      <point x="526" y="606" type="curve"/>
      <point x="570" y="649" type="line"/>
      <point x="523" y="688"/>
      <point x="454" y="712"/>
      <point x="384" y="712" type="curve" smooth="yes"/>
      <point x="232" y="712"/>
      <point x="104" y="585"/>
      <point x="63" y="338" type="curve" smooth="yes"/>
      <point x="32" y="152"/>
      <point x="60" y="-12"/>
    </contour>
    <contour>
      <point x="260" y="46" type="curve" smooth="yes"/>
      <point x="163" y="46"/>
      <point x="106" y="112"/>
      <point x="122" y="209" type="curve" smooth="yes"/>
      <point x="139" y="309"/>
      <point x="223" y="379"/>
      <point x="324" y="379" type="curve" smooth="yes"/>
      <point x="408" y="379"/>
      <point x="463" y="328"/>
      <point x="463" y="250" type="curve" smooth="yes"/>
      <point x="463" y="146"/>
      <point x="381" y="46"/>
    </contour>
  </outline>
</glyph>
<glyph name="seven" format="2">
  <advance width="530"/>
  <unicode hex="0037"/>
  <outline>
    <contour>
      <point x="34" y="0" type="line"/>
      <point x="107" y="0" type="line"/>
      <point x="566" y="642" type="line"/>
      <point x="515" y="672" type="line"/>
    </contour>
    <contour>
      <point x="111" y="642" type="line"/>
      <point x="529" y="642" type="line"/>
      <point x="566" y="642" type="line"/>
      <point x="575" y="700" type="line"/>
      <point x="120" y="700" type="line"/>
    </contour>
  </outline>
</glyph>
<glyph name="eight" format="2">
  <advance width="615"/>
  <unicode hex="0038"/>
  <outline>
    <contour>
      <point x="267" y="-12" type="curve" smooth="yes"/>
      <point x="410" y="-12"/>
      <point x="524" y="65"/>
      <point x="543" y="178" type="curve" smooth="yes"/>
      <point x="563" y="299"/>
      <point x="472" y="384"/>
      <point x="325" y="384" type="curve" smooth="yes"/>
      <point x="182" y="384"/>
      <point x="69" y="303"/>
      <point x="49" y="186" type="curve" smooth="yes"/>
      <point x="30" y="69"/>
      <point x="120" y="-12"/>
    </contour>
    <contour>
      <point x="269" y="46" type="curve" smooth="yes"/>
      <point x="164" y="46"/>
      <point x="99" y="101"/>
      <point x="113" y="182" type="curve" smooth="yes"/>
      <point x="127" y="268"/>
      <point x="215" y="327"/>
      <point x="324" y="327" type="curve" smooth="yes"/>
      <point x="430" y="327"/>
      <point x="495" y="272"/>
      <point x="481" y="190" type="curve" smooth="yes"/>
      <point x="467" y="105"/>
      <point x="379" y="46"/>
    </contour>
    <contour>
      <point x="326" y="337" type="curve" smooth="yes"/>
      <point x="453" y="337"/>
      <point x="555" y="410"/>
      <point x="573" y="518" type="curve" smooth="yes"/>
      <point x="592" y="632"/>
      <point x="511" y="712"/>
      <point x="380" y="712" type="curve" smooth="yes"/>
      <point x="253" y="712"/>
      <point x="152" y="636"/>
      <point x="133" y="526" type="curve" smooth="yes"/>
      <point x="114" y="414"/>
      <point x="195" y="337"/>
    </contour>
    <contour>
      <point x="327" y="394" type="curve" smooth="yes"/>
      <point x="238" y="394"/>
      <point x="183" y="442"/>
      <point x="195" y="513" type="curve" smooth="yes"/>
      <point x="209" y="596"/>
      <point x="286" y="654"/>
      <point x="379" y="654" type="curve" smooth="yes"/>
      <point x="469" y="654"/>
      <point x="523" y="600"/>
      <point x="509" y="521" type="curve" smooth="yes"/>
      <point x="497" y="446"/>
      <point x="421" y="394"/>
    </contour>
  </outline>
</glyph>
<glyph name="colon" format="2">
  <advance width="234"/>
  <unicode hex="003A"/>
  <outline>
    <contour>
      <point x="147" y="410" type="curve" smooth="yes"/>
      <point x="170" y="410"/>
      <point x="192" y="429"/>
      <point x="196" y="452" type="curve" smooth="yes"/>
      <point x="200" y="479"/>
      <point x="181" y="502"/>
      <point x="154" y="502" type="curve" smooth="yes"/>
      <point x="131" y="502"/>
      <point x="109" y="483"/>
      <point x="105" y="460" type="curve" smooth="yes"/>
      <point x="101" y="433"/>
      <point x="120" y="410"/>
    </contour>
    <contour>
      <point x="80" y="-2" type="curve" smooth="yes"/>
      <point x="103" y="-2"/>
      <point x="125" y="17"/>
      <point x="129" y="40" type="curve" smooth="yes"/>
      <point x="133" y="67"/>
      <point x="114" y="90"/>
      <point x="87" y="90" type="curve" smooth="yes"/>
      <point x="64" y="90"/>
      <point x="42" y="71"/>
      <point x="38" y="48" type="curve" smooth="yes"/>
      <point x="34" y="21"/>
      <point x="53" y="-2"/>
    </contour>
  </outline>
</glyph>
<glyph name="semicolon" format="2">
  <advance width="241"/>
  <unicode hex="003B"/>
  <outline>
    <contour>
      <point x="143" y="410" type="curve" smooth="yes"/>
      <point x="166" y="410"/>
      <point x="188" y="429"/>
      <point x="192" y="452" type="curve" smooth="yes"/>
      <point x="196" y="479"/>
      <point x="177" y="502"/>
      <point x="150" y="502" type="curve" smooth="yes"/>
      <point x="127" y="502"/>
      <point x="105" y="483"/>
      <point x="101" y="460" type="curve" smooth="yes"/>
      <point x="97" y="433"/>
      <point x="116" y="410"/>
    </contour>
    <component base="comma"/>
  </outline>
</glyph>
<glyph name="equal" format="2">
  <advance width="620"/>
  <unicode hex="003D"/>
  <outline>
    <contour>
      <point x="130" y="369" type="line"/>
      <point x="530" y="369" type="line"/>
      <point x="539" y="426" type="line"/>
      <point x="139" y="426" type="line"/>
    </contour>
    <contour>
      <point x="96" y="169" type="line"/>
      <point x="496" y="169" type="line"/>
      <point x="506" y="226" type="line"/>
      <point x="106" y="226" type="line"/>
    </contour>
  </outline>
</glyph>
<glyph name="greater" format="2">
  <advance width="620"/>
  <unicode hex="003E"/>
  <outline>
    <contour>
      <point x="126" y="107" type="line"/>
      <point x="484" y="266" type="line"/>
      <point x="494" y="332" type="line"/>
      <point x="136" y="169" type="line"/>
    </contour>
    <contour>
      <point x="484" y="266" type="line"/>
      <point x="494" y="332" type="line"/>
      <point x="190" y="489" type="line"/>
      <point x="180" y="426" type="line"/>
    </contour>
  </outline>
</glyph>
<glyph name="question" format="2">
  <advance width="501"/>
  <unicode hex="003F"/>
  <outline>
    <contour>
      <point x="190" y="304" type="line"/>
      <point x="236" y="304" type="line" smooth="yes"/>
      <point x="369" y="304"/>
      <point x="474" y="385"/>
      <point x="494" y="506" type="curve" smooth="yes"/>
      <point x="514" y="626"/>
      <point x="436" y="712"/>
      <point x="306" y="712" type="curve" smooth="yes"/>
      <point x="209" y="712"/>
      <point x="131" y="664"/>
      <point x="93" y="595" type="curve"/>
      <point x="149" y="571" type="line"/>
      <point x="173" y="618"/>
      <point x="236" y="654"/>
      <point x="305" y="654" type="curve" smooth="yes"/>
      <point x="393" y="654"/>
      <point x="445" y="596"/>
      <point x="431" y="514" type="curve" smooth="yes"/>
      <point x="416" y="423"/>
      <point x="337" y="362"/>
      <point x="242" y="362" type="curve" smooth="yes"/>
      <point x="200" y="362" type="line"/>
    </contour>
    <contour>
      <point x="173" y="-14" type="curve" smooth="yes"/>
      <point x="198" y="-14"/>
      <point x="218" y="3"/>
      <point x="222" y="28" type="curve" smooth="yes"/>
      <point x="227" y="57"/>
      <point x="209" y="78"/>
      <point x="180" y="78" type="curve" smooth="yes"/>
      <point x="155" y="78"/>
      <point x="135" y="61"/>
      <point x="131" y="36" type="curve" smooth="yes"/>
      <point x="126" y="7"/>
      <point x="144" y="-14"/>
    </contour>
    <contour>
      <point x="170" y="183" type="line"/>
      <point x="234" y="183" type="line"/>
      <point x="264" y="362" type="line"/>
      <point x="200" y="362" type="line"/>
    </contour>
  </outline>
</glyph>
<glyph name="at" format="2">
  <advance width="988"/>
  <unicode hex="0040"/>
  <outline>
    <contour>
      <point x="440" y="-213" type="curve" smooth="yes"/>
      <point x="499" y="-213"/>
      <point x="584" y="-195"/>
      <point x="645" y="-167" type="curve"/>
      <point x="621" y="-118" type="line"/>
      <point x="572" y="-139"/>
      <point x="498" y="-155"/>
      <point x="442" y="-155" type="curve" smooth="yes"/>
      <point x="210" y="-155"/>
      <point x="74" y="12"/>
      <point x="114" y="248" type="curve" smooth="yes"/>
      <point x="154" y="487"/>
      <point x="350" y="657"/>
      <point x="586" y="657" type="curve" smooth="yes"/>
      <point x="795" y="657"/>
      <point x="914" y="491"/>
      <point x="875" y="254" type="curve" smooth="yes"/>
      <point x="854" y="132"/>
      <point x="788" y="43"/>
      <point x="716" y="43" type="curve" smooth="yes"/>
      <point x="693" y="43"/>
      <point x="681" y="66"/>
      <point x="687" y="100" type="curve" smooth="yes"/>
      <point x="750" y="479" type="line"/>
      <point x="684" y="479" type="line"/>
      <point x="621" y="102" type="line" smooth="yes"/>
      <point x="609" y="30"/>
      <point x="639" y="-16"/>
      <point x="713" y="-15" type="curve" smooth="yes"/>
      <point x="819" y="-15"/>
      <point x="912" y="94"/>
      <point x="938" y="250" type="curve" smooth="yes"/>
      <point x="983" y="521"/>
      <point x="838" y="715"/>
      <point x="588" y="715" type="curve" smooth="yes"/>
      <point x="318" y="715"/>
      <point x="96" y="525"/>
      <point x="51" y="256" type="curve" smooth="yes"/>
      <point x="5" y="-18"/>
      <point x="167" y="-213"/>
    </contour>
    <contour>
      <point x="430" y="15" type="curve" smooth="yes"/>
      <point x="555" y="15"/>
      <point x="659" y="112"/>
      <point x="682" y="249" type="curve" smooth="yes"/>
      <point x="705" y="390"/>
      <point x="630" y="490"/>
      <point x="501" y="490" type="curve" smooth="yes"/>
      <point x="369" y="490"/>
      <point x="261" y="394"/>
      <point x="238" y="257" type="curve" smooth="yes"/>
      <point x="215" y="116"/>
      <point x="294" y="15"/>
    </contour>
    <contour>
      <point x="441" y="73" type="curve" smooth="yes"/>
      <point x="341" y="73"/>
      <point x="284" y="146"/>
      <point x="301" y="249" type="curve" smooth="yes"/>
      <point x="319" y="356"/>
      <point x="405" y="432"/>
      <point x="509" y="432" type="curve" smooth="yes"/>
      <point x="608" y="432"/>
      <point x="666" y="360"/>
      <point x="649" y="257" type="curve" smooth="yes"/>
      <point x="631" y="150"/>
      <point x="544" y="73"/>
    </contour>
  </outline>
</glyph>
<glyph name="A" format="2">
  <advance width="668"/>
  <unicode hex="0041"/>
  <anchor x="299" y="0" name="bottom"/>
  <anchor x="616" y="0" name="ogonek"/>
  <anchor x="406" y="670" name="top"/>
  <outline>
    <contour>
      <point x="-32" y="0" type="line"/>
      <point x="42" y="0" type="line"/>
      <point x="443" y="700" type="line"/>
      <point x="373" y="700" type="line"/>
    </contour>
    <contour>
      <point x="551" y="0" type="line"/>
      <point x="616" y="0" type="line"/>
      <point x="445" y="700" type="line"/>
      <point x="383" y="700" type="line"/>
    </contour>
    <contour>
      <point x="140" y="217" type="line"/>
      <point x="510" y="217" type="line"/>
      <point x="520" y="275" type="line"/>
      <point x="150" y="275" type="line"/>
    </contour>
  </outline>
</glyph>
<glyph name="B" format="2">
  <advance width="610"/>
  <unicode hex="0042"/>
  <outline>
    <contour>
      <point x="122" y="0" type="line"/>
      <point x="302" y="0" type="line" smooth="yes"/>
      <point x="439" y="0"/>
      <point x="529" y="67"/>
      <point x="549" y="183" type="curve" smooth="yes"/>
      <point x="570" y="309"/>
      <point x="479" y="385"/>
      <point x="306" y="385" type="curve" smooth="yes"/>
      <point x="186" y="384" type="line"/>
      <point x="177" y="326" type="line"/>
      <point x="330" y="326" type="line" smooth="yes"/>
      <point x="444" y="327"/>
      <point x="501" y="277"/>
      <point x="487" y="191" type="curve" smooth="yes"/>
      <point x="473" y="109"/>
      <point x="405" y="59"/>
      <point x="308" y="59" type="curve" smooth="yes"/>
      <point x="132" y="59" type="line"/>
    </contour>
    <contour>
      <point x="58" y="0" type="line"/>
      <point x="122" y="0" type="line"/>
      <point x="239" y="700" type="line"/>
      <point x="175" y="700" type="line"/>
    </contour>
    <contour>
      <point x="177" y="326" type="line"/>
      <point x="327" y="326" type="line" smooth="yes"/>
      <point x="470" y="326"/>
      <point x="564" y="393"/>
      <point x="583" y="509" type="curve" smooth="yes"/>
      <point x="603" y="629"/>
      <point x="529" y="701"/>
      <point x="388" y="701" type="curve" smooth="yes"/>
      <point x="239" y="700" type="line"/>
      <point x="230" y="642" type="line"/>
      <point x="383" y="642" type="line" smooth="yes"/>
      <point x="485" y="643"/>
      <point x="535" y="597"/>
      <point x="522" y="517" type="curve" smooth="yes"/>
      <point x="508" y="435"/>
      <point x="448" y="385"/>
      <point x="363" y="385" type="curve" smooth="yes"/>
      <point x="187" y="385" type="line"/>
    </contour>
  </outline>
</glyph>
<glyph name="C" format="2">
  <advance width="720"/>
  <unicode hex="0043"/>
  <anchor x="349" y="0" name="bottom"/>
  <anchor x="456" y="670" name="top"/>
  <outline>
    <contour>
      <point x="349" y="-12" type="curve" smooth="yes"/>
      <point x="465" y="-12"/>
      <point x="596" y="61"/>
      <point x="666" y="168" type="curve"/>
      <point x="617" y="205" type="line"/>
      <point x="560" y="112"/>
      <point x="450" y="44"/>
      <point x="351" y="44" type="curve" smooth="yes"/>
      <point x="192" y="44"/>
      <point x="100" y="168"/>
      <point x="130" y="346" type="curve" smooth="yes"/>
      <point x="160" y="526"/>
      <point x="297" y="654"/>
      <point x="458" y="654" type="curve" smooth="yes"/>
      <point x="551" y="654"/>
      <point x="638" y="596"/>
      <point x="667" y="511" type="curve"/>
      <point x="723" y="540" type="line"/>
      <point x="688" y="640"/>
      <point x="579" y="712"/>
      <point x="459" y="712" type="curve" smooth="yes"/>
      <point x="264" y="712"/>
      <point x="103" y="564"/>
      <point x="67" y="354" type="curve" smooth="yes"/>
      <point x="32" y="140"/>
      <point x="148" y="-12"/>
    </contour>
  </outline>
</glyph>
<glyph name="D" format="2">
  <advance width="683"/>
  <unicode hex="0044"/>
  <anchor x="378" y="670" name="top"/>
  <outline>
    <contour>
      <point x="58" y="0" type="line"/>
      <point x="267" y="0" type="line" smooth="yes"/>
      <point x="457" y="0"/>
      <point x="615" y="143"/>
      <point x="649" y="346" type="curve" smooth="yes"/>
      <point x="684" y="553"/>
      <point x="572" y="699"/>
      <point x="384" y="700" type="curve" smooth="yes"/>
      <point x="175" y="700" type="line"/>
    </contour>
    <contour>
      <point x="132" y="58" type="line"/>
      <point x="229" y="642" type="line"/>
      <point x="375" y="642" type="line" smooth="yes"/>
      <point x="519" y="642"/>
      <point x="613" y="513"/>
      <point x="586" y="354" type="curve" smooth="yes"/>
      <point x="559" y="191"/>
      <point x="419" y="58"/>
      <point x="275" y="58" type="curve" smooth="yes"/>
    </contour>
  </outline>
</glyph>
<glyph name="E" format="2">
  <advance width="593"/>
  <unicode hex="0045"/>
  <anchor x="235" y="0" name="bottom"/>
  <anchor x="461" y="0" name="ogonek"/>
  <anchor x="378" y="670" name="top"/>
  <anchor x="95" y="700" name="topleft"/>
  <outline>
    <contour>
      <point x="58" y="0" type="line"/>
      <point x="461" y="0" type="line"/>
      <point x="471" y="58" type="line"/>
      <point x="132" y="58" type="line"/>
      <point x="178" y="332" type="line"/>
      <point x="493" y="332" type="line"/>
      <point x="502" y="390" type="line"/>
      <point x="187" y="390" type="line"/>
      <point x="229" y="642" type="line"/>
      <point x="569" y="642" type="line"/>
      <point x="578" y="700" type="line"/>
      <point x="175" y="700" type="line"/>
    </contour>
  </outline>
</glyph>
<glyph name="F" format="2">
  <advance width="539"/>
  <unicode hex="0046"/>
  <outline>
    <contour>
      <point x="58" y="0" type="line"/>
      <point x="122" y="0" type="line"/>
      <point x="239" y="700" type="line"/>
      <point x="175" y="700" type="line"/>
    </contour>
    <contour>
      <point x="175" y="317" type="line"/>
      <point x="480" y="317" type="line"/>
      <point x="490" y="375" type="line"/>
      <point x="185" y="375" type="line"/>
    </contour>
    <contour>
      <point x="230" y="642" type="line"/>
      <point x="569" y="642" type="line"/>
      <point x="578" y="700" type="line"/>
      <point x="239" y="700" type="line"/>
    </contour>
  </outline>
</glyph>
<glyph name="G" format="2">
  <advance width="767"/>
  <unicode hex="0047"/>
  <anchor x="371" y="0" name="bottom"/>
  <anchor x="479" y="700" name="top"/>
  <outline>
    <contour>
      <point x="373" y="-12" type="curve" smooth="yes"/>
      <point x="555" y="-12"/>
      <point x="704" y="113"/>
      <point x="734" y="291" type="curve"/>
      <point x="672" y="291" type="line"/>
      <point x="648" y="148"/>
      <point x="523" y="46"/>
      <point x="375" y="46" type="curve" smooth="yes"/>
      <point x="202" y="46"/>
      <point x="101" y="170"/>
      <point x="130" y="345" type="curve" smooth="yes"/>
      <point x="160" y="526"/>
      <point x="308" y="654"/>
      <point x="485" y="654" type="curve" smooth="yes"/>
      <point x="571" y="654"/>
      <point x="656" y="607"/>
      <point x="688" y="537" type="curve"/>
      <point x="741" y="570" type="line"/>
      <point x="699" y="652"/>
      <point x="594" y="712"/>
      <point x="486" y="712" type="curve" smooth="yes"/>
      <point x="275" y="712"/>
      <point x="103" y="564"/>
      <point x="67" y="353" type="curve" smooth="yes"/>
      <point x="32" y="140"/>
      <point x="158" y="-12"/>
    </contour>
    <contour>
      <point x="496" y="291" type="line"/>
      <point x="706" y="291" type="line"/>
      <point x="734" y="291" type="line"/>
      <point x="744" y="350" type="line"/>
      <point x="506" y="350" type="line"/>
    </contour>
  </outline>
</glyph>
<glyph name="H" format="2">
  <advance width="752"/>
  <unicode hex="0048"/>
  <outline>
    <contour>
      <point x="58" y="0" type="line"/>
      <point x="122" y="0" type="line"/>
      <point x="239" y="700" type="line"/>
      <point x="175" y="700" type="line"/>
    </contour>
    <contour>
      <point x="546" y="0" type="line"/>
      <point x="610" y="0" type="line"/>
      <point x="727" y="700" type="line"/>
      <point x="663" y="700" type="line"/>
    </contour>
    <contour>
      <point x="178" y="332" type="line"/>
      <point x="602" y="332" type="line"/>
      <point x="611" y="390" type="line"/>
      <point x="187" y="390" type="line"/>
    </contour>
  </outline>
</glyph>
<glyph name="I" format="2">
  <advance width="264"/>
  <unicode hex="0049"/>
  <anchor x="90" y="0" name="bottom"/>
  <anchor x="122" y="0" name="ogonek"/>
  <anchor x="202" y="670" name="top"/>
  <anchor x="95" y="700" name="topleft"/>
  <outline>
    <contour>
      <point x="58" y="0" type="line"/>
      <point x="122" y="0" type="line"/>
      <point x="239" y="700" type="line"/>
      <point x="175" y="700" type="line"/>
    </contour>
  </outline>
</glyph>
<glyph name="J" format="2">
  <advance width="500"/>
  <unicode hex="004A"/>
  <anchor x="448" y="670" name="top"/>
  <outline>
    <contour>
      <point x="144" y="-11" type="curve" smooth="yes"/>
      <point x="249" y="-11"/>
      <point x="378" y="59"/>
      <point x="403" y="210" type="curve" smooth="yes"/>
      <point x="485" y="700" type="line"/>
      <point x="421" y="700" type="line"/>
      <point x="345" y="244" type="line" smooth="yes"/>
      <point x="321" y="99"/>
      <point x="224" y="47"/>
      <point x="146" y="47" type="curve" smooth="yes"/>
      <point x="87" y="47"/>
      <point x="51" y="81"/>
      <point x="30" y="128" type="curve"/>
      <point x="-19" y="97" type="line"/>
      <point x="7" y="35"/>
      <point x="59" y="-11"/>
    </contour>
  </outline>
</glyph>
<glyph name="K" format="2">
  <advance width="588"/>
  <unicode hex="004B"/>
  <anchor x="252" y="0" name="bottom"/>
  <anchor x="369" y="700" name="top"/>
  <outline>
    <contour>
      <point x="153" y="264" type="line"/>
      <point x="645" y="700" type="line"/>
      <point x="566" y="700" type="line"/>
      <point x="117" y="305" type="line"/>
    </contour>
    <contour>
      <point x="58" y="0" type="line"/>
      <point x="118" y="0" type="line"/>
      <point x="235" y="700" type="line"/>
      <point x="175" y="700" type="line"/>
    </contour>
    <contour>
      <point x="465" y="0" type="line"/>
      <point x="540" y="0" type="line"/>
      <point x="277" y="399" type="line"/>
      <point x="233" y="356" type="line"/>
    </contour>
  </outline>
</glyph>
<glyph name="L" format="2">
  <advance width="513"/>
  <unicode hex="004C"/>
  <anchor x="242" y="0" name="bottom"/>
  <anchor x="274" y="350" name="center"/>
  <anchor x="202" y="670" name="top"/>
  <anchor x="289" y="759" name="top_caron"/>
  <anchor x="568" y="700" name="topright"/>
  <outline>
    <contour>
      <point x="58" y="0" type="line"/>
      <point x="461" y="0" type="line"/>
      <point x="471" y="58" type="line"/>
      <point x="132" y="58" type="line"/>
      <point x="239" y="700" type="line"/>
      <point x="175" y="700" type="line"/>
    </contour>
  </outline>
</glyph>
<glyph name="M" format="2">
  <advance width="841"/>
  <unicode hex="004D"/>
  <outline>
    <contour>
      <point x="415" y="211" type="line"/>
      <point x="455" y="275" type="line"/>
      <point x="238" y="700" type="line"/>
      <point x="210" y="681" type="line"/>
      <point x="185" y="663" type="line"/>
    </contour>
    <contour>
      <point x="58" y="0" type="line"/>
      <point x="122" y="0" type="line"/>
      <point x="239" y="700" type="line"/>
      <point x="175" y="700" type="line"/>
    </contour>
    <contour>
      <point x="415" y="211" type="line"/>
      <point x="793" y="664" type="line"/>
      <point x="773" y="681" type="line"/>
      <point x="751" y="700" type="line"/>
      <point x="395" y="275" type="line"/>
    </contour>
    <contour>
      <point x="635" y="0" type="line"/>
      <point x="699" y="0" type="line"/>
      <point x="816" y="700" type="line"/>
      <point x="752" y="700" type="line"/>
    </contour>
  </outline>
</glyph>
<glyph name="N" format="2">
  <advance width="774"/>
  <unicode hex="004E"/>
  <anchor x="345" y="0" name="bottom"/>
  <anchor x="451" y="670" name="top"/>
  <outline>
    <contour>
      <point x="58" y="0" type="line"/>
      <point x="122" y="0" type="line"/>
      <point x="223" y="599" type="line"/>
      <point x="568" y="0" type="line"/>
      <point x="632" y="0" type="line"/>
      <point x="749" y="700" type="line"/>
      <point x="685" y="700" type="line"/>
      <point x="585" y="100" type="line"/>
      <point x="239" y="700" type="line"/>
      <point x="175" y="700" type="line"/>
    </contour>
  </outline>
</glyph>
<glyph name="O" format="2">
  <advance width="772"/>
  <unicode hex="004F"/>
  <anchor x="347" y="0" name="bottom"/>
  <anchor x="403" y="350" name="center"/>
  <anchor x="655" y="10" name="ogonek"/>
  <anchor x="456" y="670" name="top"/>
  <anchor x="95" y="700" name="topleft"/>
  <anchor x="827" y="700" name="topright"/>
  <outline>
    <contour>
      <point x="349" y="-12" type="curve" smooth="yes"/>
      <point x="542" y="-12"/>
      <point x="703" y="135"/>
      <point x="738" y="346" type="curve" smooth="yes"/>
      <point x="774" y="560"/>
      <point x="659" y="712"/>
      <point x="459" y="712" type="curve" smooth="yes"/>
      <point x="263" y="712"/>
      <point x="103" y="565"/>
      <point x="67" y="354" type="curve" smooth="yes"/>
      <point x="31" y="139"/>
      <point x="149" y="-12"/>
    </contour>
    <contour>
      <point x="351" y="46" type="curve" smooth="yes"/>
      <point x="192" y="46"/>
      <point x="101" y="170"/>
      <point x="130" y="346" type="curve" smooth="yes"/>
      <point x="160" y="526"/>
      <point x="297" y="654"/>
      <point x="458" y="654" type="curve" smooth="yes"/>
      <point x="615" y="654"/>
      <point x="705" y="530"/>
      <point x="675" y="354" type="curve" smooth="yes"/>
      <point x="645" y="174"/>
      <point x="511" y="46"/>
    </contour>
  </outline>
</glyph>
<glyph name="P" format="2">
  <advance width="570"/>
  <unicode hex="0050"/>
  <outline>
    <contour>
      <point x="58" y="0" type="line"/>
      <point x="122" y="0" type="line"/>
      <point x="166" y="266" type="line"/>
      <point x="347" y="266" type="line" smooth="yes"/>
      <point x="463" y="266"/>
      <point x="557" y="354"/>
      <point x="578" y="479" type="curve" smooth="yes"/>
      <point x="600" y="609"/>
      <point x="520" y="700"/>
      <point x="388" y="700" type="curve" smooth="yes"/>
      <point x="175" y="700" type="line"/>
    </contour>
    <contour>
      <point x="176" y="325" type="line"/>
      <point x="229" y="642" type="line"/>
      <point x="383" y="642" type="line" smooth="yes"/>
      <point x="478" y="642"/>
      <point x="532" y="579"/>
      <point x="517" y="487" type="curve" smooth="yes"/>
      <point x="501" y="392"/>
      <point x="432" y="325"/>
      <point x="353" y="325" type="curve" smooth="yes"/>
    </contour>
  </outline>
</glyph>
<glyph name="Q" format="2">
  <advance width="776"/>
  <unicode hex="0051"/>
  <outline>
    <contour>
      <point x="349" y="-12" type="curve" smooth="yes"/>
      <point x="542" y="-12"/>
      <point x="703" y="135"/>
      <point x="738" y="346" type="curve" smooth="yes"/>
      <point x="774" y="560"/>
      <point x="659" y="712"/>
      <point x="459" y="712" type="curve" smooth="yes"/>
      <point x="263" y="712"/>
      <point x="103" y="565"/>
      <point x="67" y="354" type="curve" smooth="yes"/>
      <point x="31" y="139"/>
      <point x="149" y="-12"/>
    </contour>
    <contour>
      <point x="637" y="-38" type="line"/>
      <point x="685" y="5" type="line"/>
      <point x="480" y="253" type="line"/>
      <point x="430" y="211" type="line"/>
    </contour>
    <contour>
      <point x="351" y="46" type="curve" smooth="yes"/>
      <point x="192" y="46"/>
      <point x="101" y="170"/>
      <point x="130" y="346" type="curve" smooth="yes"/>
      <point x="160" y="526"/>
      <point x="297" y="654"/>
      <point x="458" y="654" type="curve" smooth="yes"/>
      <point x="615" y="654"/>
      <point x="705" y="530"/>
      <point x="675" y="354" type="curve" smooth="yes"/>
      <point x="645" y="174"/>
      <point x="511" y="46"/>
    </contour>
  </outline>
</glyph>
<glyph name="R" format="2">
  <advance width="618"/>
  <unicode hex="0052"/>
  <anchor x="267" y="0" name="bottom"/>
  <anchor x="358" y="670" name="top"/>
  <outline>
    <contour>
      <point x="58" y="0" type="line"/>
      <point x="122" y="0" type="line"/>
      <point x="170" y="286" type="line"/>
      <point x="310" y="286" type="line" smooth="yes"/>
      <point x="444" y="286"/>
      <point x="560" y="370"/>
      <point x="580" y="489" type="curve" smooth="yes"/>
      <point x="601" y="613"/>
      <point x="521" y="700"/>
      <point x="388" y="700" type="curve" smooth="yes"/>
      <point x="175" y="700" type="line"/>
    </contour>
    <contour>
      <point x="457" y="0" type="line"/>
      <point x="525" y="0" type="line"/>
      <point x="392" y="321" type="line"/>
      <point x="335" y="290" type="line"/>
    </contour>
    <contour>
      <point x="180" y="345" type="line"/>
      <point x="229" y="642" type="line"/>
      <point x="383" y="642" type="line" smooth="yes"/>
      <point x="478" y="642"/>
      <point x="533" y="583"/>
      <point x="518" y="497" type="curve" smooth="yes"/>
      <point x="503" y="408"/>
      <point x="425" y="345"/>
      <point x="346" y="345" type="curve" smooth="yes"/>
    </contour>
  </outline>
</glyph>
<glyph name="S" format="2">
  <advance width="617"/>
  <unicode hex="0053"/>
  <anchor x="277" y="0" name="bottom"/>
  <anchor x="390" y="670" name="top"/>
  <outline>
    <contour>
      <point x="279" y="-12" type="curve" smooth="yes"/>
      <point x="439" y="-12"/>
      <point x="533" y="76"/>
      <point x="550" y="180" type="curve" smooth="yes"/>
      <point x="564" y="264"/>
      <point x="498" y="346"/>
      <point x="363" y="380" type="curve" smooth="yes"/>
      <point x="294" y="397" type="line" smooth="yes"/>
      <point x="224" y="415"/>
      <point x="182" y="446"/>
      <point x="194" y="517" type="curve" smooth="yes"/>
      <point x="208" y="600"/>
      <point x="281" y="654"/>
      <point x="382" y="654" type="curve" smooth="yes"/>
      <point x="473" y="654"/>
      <point x="533" y="613"/>
      <point x="550" y="540" type="curve"/>
      <point x="611" y="559" type="line"/>
      <point x="602" y="628"/>
      <point x="533" y="712"/>
      <point x="393" y="712" type="curve" smooth="yes"/>
      <point x="242" y="712"/>
      <point x="150" y="640"/>
      <point x="130" y="517" type="curve" smooth="yes"/>
      <point x="112" y="413"/>
      <point x="185" y="359"/>
      <point x="274" y="335" type="curve" smooth="yes"/>
      <point x="342" y="317" type="line" smooth="yes"/>
      <point x="438" y="292"/>
      <point x="498" y="251"/>
      <point x="486" y="179" type="curve" smooth="yes"/>
      <point x="473" y="100"/>
      <point x="391" y="46"/>
      <point x="266" y="46" type="curve" smooth="yes"/>
      <point x="172" y="46"/>
      <point x="112" y="99"/>
      <point x="100" y="162" type="curve"/>
      <point x="38" y="143" type="line"/>
      <point x="52" y="64"/>
      <point x="120" y="-12"/>
    </contour>
  </outline>
</glyph>
<glyph name="T" format="2">
  <advance width="540"/>
  <unicode hex="0054"/>
  <anchor x="228" y="0" name="bottom"/>
  <anchor x="287" y="350" name="center"/>
  <anchor x="340" y="670" name="top"/>
  <outline>
    <contour>
      <point x="196" y="0" type="line"/>
      <point x="260" y="0" type="line"/>
      <point x="368" y="642" type="line"/>
      <point x="596" y="642" type="line"/>
      <point x="605" y="700" type="line"/>
      <point x="85" y="700" type="line"/>
      <point x="76" y="642" type="line"/>
      <point x="304" y="642" type="line"/>
    </contour>
  </outline>
</glyph>
<glyph name="U" format="2">
  <advance width="709"/>
  <unicode hex="0055"/>
  <anchor x="313" y="0" name="bottom"/>
  <anchor x="503" y="50" name="ogonek"/>
  <anchor x="425" y="670" name="top"/>
  <anchor x="744" y="700" name="topright"/>
  <outline>
    <contour>
      <point x="311" y="-16" type="curve" smooth="yes"/>
      <point x="465" y="-16"/>
      <point x="592" y="91"/>
      <point x="618" y="245" type="curve" smooth="yes"/>
      <point x="694" y="700" type="line"/>
      <point x="630" y="700" type="line"/>
      <point x="554" y="245" type="line" smooth="yes"/>
      <point x="535" y="127"/>
      <point x="435" y="42"/>
      <point x="315" y="42" type="curve" smooth="yes"/>
      <point x="200" y="42"/>
      <point x="133" y="125"/>
      <point x="153" y="245" type="curve" smooth="yes"/>
      <point x="229" y="700" type="line"/>
      <point x="165" y="700" type="line"/>
      <point x="89" y="245" type="line" smooth="yes"/>
      <point x="64" y="93"/>
      <point x="156" y="-16"/>
    </contour>
  </outline>
</glyph>
<glyph name="V" format="2">
  <advance width="681"/>
  <unicode hex="0056"/>
  <outline>
    <contour>
      <point x="267" y="0" type="line"/>
      <point x="334" y="0" type="line"/>
      <point x="746" y="700" type="line"/>
      <point x="678" y="700" type="line"/>
    </contour>
    <contour>
      <point x="262" y="0" type="line"/>
      <point x="326" y="0" type="line"/>
      <point x="150" y="700" type="line"/>
      <point x="85" y="700" type="line"/>
    </contour>
  </outline>
</glyph>
<glyph name="W" format="2">
  <advance width="950"/>
  <unicode hex="0057"/>
  <anchor x="544" y="670" name="top"/>
  <outline>
    <contour>
      <point x="611" y="0" type="line"/>
      <point x="677" y="0" type="line"/>
      <point x="1015" y="700" type="line"/>
      <point x="950" y="700" type="line"/>
    </contour>
    <contour>
      <point x="184" y="0" type="line"/>
      <point x="248" y="0" type="line"/>
      <point x="148" y="700" type="line"/>
      <point x="85" y="700" type="line"/>
    </contour>
    <contour>
      <point x="188" y="0" type="line"/>
      <point x="254" y="0" type="line"/>
      <point x="582" y="700" type="line"/>
      <point x="517" y="700" type="line"/>
    </contour>
    <contour>
      <point x="607" y="0" type="line"/>
      <point x="671" y="0" type="line"/>
      <point x="581" y="700" type="line"/>
      <point x="518" y="700" type="line"/>
    </contour>
  </outline>
</glyph>
<glyph name="X" format="2">
  <advance width="589"/>
  <unicode hex="0058"/>
  <outline>
    <contour>
      <point x="-33" y="0" type="line"/>
      <point x="47" y="0" type="line"/>
      <point x="328" y="330" type="line"/>
      <point x="655" y="700" type="line"/>
      <point x="578" y="700" type="line"/>
      <point x="301" y="385" type="line"/>
    </contour>
    <contour>
      <point x="460" y="0" type="line"/>
      <point x="536" y="0" type="line"/>
      <point x="330" y="385" type="line"/>
      <point x="161" y="700" type="line"/>
      <point x="86" y="700" type="line"/>
      <point x="291" y="330" type="line"/>
    </contour>
  </outline>
</glyph>
<glyph name="Y" format="2">
  <advance width="588"/>
  <unicode hex="0059"/>
  <anchor x="364" y="670" name="top"/>
  <outline>
    <contour>
      <point x="334" y="292" type="line"/>
      <point x="654" y="700" type="line"/>
      <point x="578" y="700" type="line"/>
      <point x="288" y="328" type="line"/>
    </contour>
    <contour>
      <point x="220" y="0" type="line"/>
      <point x="284" y="0" type="line"/>
      <point x="340" y="336" type="line"/>
      <point x="276" y="336" type="line"/>
    </contour>
    <contour>
      <point x="270" y="292" type="line"/>
      <point x="326" y="328" type="line"/>
      <point x="160" y="700" type="line"/>
      <point x="86" y="700" type="line"/>
    </contour>
  </outline>
</glyph>
<glyph name="Z" format="2">
  <advance width="644"/>
  <unicode hex="005A"/>
  <anchor x="393" y="670" name="top"/>
  <outline>
    <contour>
      <point x="18" y="58" type="line"/>
      <point x="99" y="58" type="line"/>
      <point x="660" y="642" type="line"/>
      <point x="611" y="674" type="line"/>
    </contour>
    <contour>
      <point x="8" y="0" type="line"/>
      <point x="549" y="0" type="line"/>
      <point x="559" y="58" type="line"/>
      <point x="18" y="58" type="line"/>
    </contour>
    <contour>
      <point x="119" y="642" type="line"/>
      <point x="660" y="642" type="line"/>
      <point x="669" y="700" type="line"/>
      <point x="128" y="700" type="line"/>
    </contour>
  </outline>
</glyph>
<glyph name="bracketleft" format="2">
  <advance width="316"/>
  <unicode hex="005B"/>
  <outline>
    <contour>
      <point x="41" y="-100" type="line"/>
      <point x="177" y="-100" type="line"/>
      <point x="187" y="-42" type="line"/>
      <point x="115" y="-42" type="line"/>
      <point x="246" y="742" type="line"/>
      <point x="318" y="742" type="line"/>
      <point x="328" y="800" type="line"/>
      <point x="192" y="800" type="line"/>
    </contour>
  </outline>
</glyph>
<glyph name="asciicircum" format="2">
  <advance width="539"/>
  <unicode hex="005E"/>
  <outline>
    <contour>
      <point x="101" y="373" type="line"/>
      <point x="165" y="373" type="line"/>
      <point x="378" y="700" type="line"/>
      <point x="311" y="700" type="line"/>
    </contour>
    <contour>
      <point x="419" y="373" type="line"/>
      <point x="480" y="373" type="line"/>
      <point x="378" y="700" type="line"/>
      <point x="312" y="700" type="line"/>
    </contour>
  </outline>
</glyph>
<glyph name="underscore" format="2">
  <advance width="440"/>
  <unicode hex="005F"/>
  <outline>
    <contour>
      <point x="-31" y="-57" type="line"/>
      <point x="369" y="-57" type="line"/>
      <point x="378" y="0" type="line"/>
      <point x="-22" y="0" type="line"/>
    </contour>
  </outline>
</glyph>
<glyph name="a" format="2">
  <advance width="600"/>
  <unicode hex="0061"/>
  <anchor x="465" y="0" name="ogonek"/>
  <anchor x="311" y="500" name="top"/>
  <outline>
    <contour>
      <point x="408" y="0" type="line"/>
      <point x="465" y="0" type="line"/>
      <point x="549" y="500" type="line"/>
      <point x="489" y="500" type="line"/>
      <point x="421" y="93" type="line"/>
    </contour>
    <component base="Bowl"/>
  </outline>
</glyph>
<glyph name="b" format="2">
  <advance width="584"/>
  <unicode hex="0062"/>
  <outline>
    <contour>
      <point x="33" y="0" type="line"/>
      <point x="90" y="0" type="line"/>
      <point x="109" y="93" type="line"/>
      <point x="210" y="700" type="line"/>
      <point x="150" y="700" type="line"/>
    </contour>
    <component base="Bowl" xScale="-1.0" yScale="-1.0" xOffset="583" yOffset="500"/>
  </outline>
</glyph>
<glyph name="c" format="2">
  <advance width="540"/>
  <unicode hex="0063"/>
  <anchor x="251" y="0" name="bottom"/>
  <anchor x="329" y="500" name="top"/>
  <outline>
    <contour>
      <point x="251" y="-12" type="curve" smooth="yes"/>
      <point x="345" y="-12"/>
      <point x="429" y="36"/>
      <point x="483" y="117" type="curve"/>
      <point x="433" y="149" type="line"/>
      <point x="392" y="84"/>
      <point x="326" y="43"/>
      <point x="252" y="43" type="curve" smooth="yes"/>
      <point x="145" y="43"/>
      <point x="84" y="126"/>
      <point x="104" y="246" type="curve" smooth="yes"/>
      <point x="125" y="370"/>
      <point x="218" y="457"/>
      <point x="328" y="457" type="curve" smooth="yes"/>
      <point x="396" y="457"/>
      <point x="447" y="424"/>
      <point x="468" y="367" type="curve"/>
      <point x="523" y="391" type="line"/>
      <point x="495" y="465"/>
      <point x="425" y="512"/>
      <point x="329" y="512" type="curve" smooth="yes"/>
      <point x="188" y="512"/>
      <point x="71" y="406"/>
      <point x="46" y="254" type="curve" smooth="yes"/>
      <point x="20" y="98"/>
      <point x="105" y="-12"/>
    </contour>
  </outline>
</glyph>
<glyph name="d" format="2">
  <advance width="582"/>
  <unicode hex="0064"/>
  <outline>
    <contour>
      <point x="408" y="0" type="line"/>
      <point x="465" y="0" type="line"/>
      <point x="582" y="700" type="line"/>
      <point x="522" y="700" type="line"/>
      <point x="421" y="93" type="line"/>
    </contour>
    <component base="Bowl"/>
  </outline>
</glyph>
<glyph name="e" format="2">
  <advance width="543"/>
  <unicode hex="0065"/>
  <anchor x="251" y="0" name="bottom"/>
  <anchor x="424" y="50" name="ogonek"/>
  <anchor x="326" y="500" name="top"/>
  <outline>
    <contour>
      <point x="251" y="-12" type="curve" smooth="yes"/>
      <point x="349" y="-12"/>
      <point x="430" y="38"/>
      <point x="481" y="112" type="curve"/>
      <point x="434" y="147" type="line"/>
      <point x="394" y="87"/>
      <point x="331" y="43"/>
      <point x="252" y="43" type="curve" smooth="yes"/>
      <point x="146" y="43"/>
      <point x="85" y="125"/>
      <point x="104" y="243" type="curve"/>
      <point x="507" y="243" type="line"/>
      <point x="533" y="400"/>
      <point x="470" y="512"/>
      <point x="326" y="512" type="curve" smooth="yes"/>
      <point x="187" y="512"/>
      <point x="71" y="405"/>
      <point x="46" y="254" type="curve" smooth="yes"/>
      <point x="20" y="98"/>
      <point x="105" y="-12"/>
    </contour>
    <contour>
      <point x="118" y="298" type="line"/>
      <point x="153" y="393"/>
      <point x="233" y="457"/>
      <point x="325" y="457" type="curve" smooth="yes"/>
      <point x="415" y="457"/>
      <point x="455" y="393"/>
      <point x="453" y="298" type="curve"/>
    </contour>
  </outline>
</glyph>
<glyph name="f" format="2">
  <advance width="359"/>
  <unicode hex="0066"/>
  <outline>
    <contour>
      <point x="83" y="0" type="line"/>
      <point x="143" y="0" type="line"/>
      <point x="237" y="558" type="line" smooth="yes"/>
      <point x="247" y="623"/>
      <point x="280" y="657"/>
      <point x="333" y="657" type="curve" smooth="yes"/>
      <point x="345" y="657"/>
      <point x="367" y="651"/>
      <point x="400" y="638" type="curve"/>
      <point x="427" y="687" type="line"/>
      <point x="390" y="703"/>
      <point x="362" y="712"/>
      <point x="339" y="712" type="curve" smooth="yes"/>
      <point x="246" y="712"/>
      <point x="194" y="664"/>
      <point x="177" y="562" type="curve" smooth="yes"/>
    </contour>
    <contour>
      <point x="63" y="445" type="line"/>
      <point x="371" y="445" type="line"/>
      <point x="380" y="500" type="line"/>
      <point x="72" y="500" type="line"/>
    </contour>
  </outline>
</glyph>
<glyph name="g" format="2">
  <advance width="582"/>
  <unicode hex="0067"/>
  <anchor x="310" y="500" name="top"/>
  <outline>
    <contour>
      <point x="193" y="-212" type="curve" smooth="yes"/>
      <point x="323" y="-212"/>
      <point x="444" y="-131"/>
      <point x="473" y="44" type="curve" smooth="yes"/>
      <point x="549" y="500" type="line"/>
      <point x="489" y="500" type="line"/>
      <point x="413" y="48" type="line" smooth="yes"/>
      <point x="389" y="-95"/>
      <point x="300" y="-157"/>
      <point x="194" y="-157" type="curve" smooth="yes"/>
      <point x="126" y="-157"/>
      <point x="63" y="-130"/>
      <point x="42" y="-115" type="curve"/>
      <point x="15" y="-163" type="line"/>
      <point x="34" y="-173"/>
      <point x="100" y="-212"/>
    </contour>
    <contour>
      <point x="233" y="0" type="curve" smooth="yes"/>
      <point x="358" y="0"/>
      <point x="463" y="105"/>
      <point x="488" y="254" type="curve" smooth="yes"/>
      <point x="513" y="405"/>
      <point x="440" y="512"/>
      <point x="311" y="512" type="curve" smooth="yes"/>
      <point x="181" y="512"/>
      <point x="72" y="409"/>
      <point x="47" y="262" type="curve" smooth="yes"/>
      <point x="21" y="109"/>
      <point x="99" y="0"/>
    </contour>
    <contour>
      <point x="246" y="53" type="curve" smooth="yes"/>
      <point x="144" y="53"/>
      <point x="86" y="136"/>
      <point x="106" y="254" type="curve" smooth="yes"/>
      <point x="126" y="374"/>
      <point x="215" y="460"/>
      <point x="321" y="460" type="curve" smooth="yes"/>
      <point x="416" y="460"/>
      <point x="468" y="378"/>
      <point x="449" y="262" type="curve" smooth="yes"/>
      <point x="429" y="140"/>
      <point x="344" y="53"/>
    </contour>
  </outline>
</glyph>
<glyph name="h" format="2">
  <advance width="554"/>
  <unicode hex="0068"/>
  <anchor x="235" y="0" name="bottom"/>
  <anchor x="302" y="400" name="center"/>
  <anchor x="181" y="700" name="top"/>
  <outline>
    <contour>
      <point x="33" y="0" type="line"/>
      <point x="93" y="0" type="line"/>
      <point x="210" y="700" type="line"/>
      <point x="150" y="700" type="line"/>
    </contour>
    <contour>
      <point x="392" y="0" type="line"/>
      <point x="452" y="0" type="line"/>
      <point x="500" y="284" type="line"/>
      <point x="435" y="258" type="line"/>
    </contour>
    <component base="arch" xOffset="96"/>
  </outline>
</glyph>
<glyph name="i" format="2">
  <advance width="208"/>
  <unicode hex="0069"/>
  <outline>
    <contour>
      <point x="93" y="0" type="line"/>
      <point x="175" y="500" type="line"/>
      <point x="115" y="500" type="line"/>
      <point x="33" y="0" type="line"/>
    </contour>
    <contour>
      <point x="172" y="630" type="curve" smooth="yes"/>
      <point x="192" y="630"/>
      <point x="210" y="646"/>
      <point x="214" y="666" type="curve" smooth="yes"/>
      <point x="218" y="690"/>
      <point x="201" y="710"/>
      <point x="177" y="710" type="curve" smooth="yes"/>
      <point x="157" y="710"/>
      <point x="138" y="694"/>
      <point x="135" y="674" type="curve" smooth="yes"/>
      <point x="131" y="650"/>
      <point x="148" y="630"/>
    </contour>
  </outline>
</glyph>
<glyph name="j" format="2">
  <advance width="254"/>
  <unicode hex="006A"/>
  <outline>
    <contour>
      <point x="218" y="632" type="curve" smooth="yes"/>
      <point x="238" y="632"/>
      <point x="257" y="648"/>
      <point x="260" y="668" type="curve" smooth="yes"/>
      <point x="264" y="692"/>
      <point x="247" y="712"/>
      <point x="223" y="712" type="curve" smooth="yes"/>
      <point x="203" y="712"/>
      <point x="185" y="696"/>
      <point x="181" y="676" type="curve" smooth="yes"/>
      <point x="177" y="652"/>
      <point x="194" y="632"/>
    </contour>
    <contour>
      <point x="-35" y="-215" type="curve" smooth="yes"/>
      <point x="58" y="-215"/>
      <point x="110" y="-167"/>
      <point x="127" y="-65" type="curve" smooth="yes"/>
      <point x="222" y="500" type="line"/>
      <point x="162" y="500" type="line"/>
      <point x="68" y="-61" type="line" smooth="yes"/>
      <point x="57" y="-126"/>
      <point x="24" y="-160"/>
      <point x="-29" y="-160" type="curve" smooth="yes"/>
      <point x="-41" y="-160"/>
      <point x="-62" y="-154"/>
      <point x="-95" y="-141" type="curve"/>
      <point x="-122" y="-190" type="line"/>
      <point x="-86" y="-206"/>
      <point x="-58" y="-215"/>
    </contour>
  </outline>
</glyph>
<glyph name="k" format="2">
  <advance width="464"/>
  <unicode hex="006B"/>
  <outline>
    <contour>
      <point x="124" y="174" type="line"/>
      <point x="486" y="500" type="line"/>
      <point x="406" y="500" type="line"/>
      <point x="88" y="215" type="line"/>
    </contour>
    <contour>
      <point x="33" y="0" type="line"/>
      <point x="93" y="0" type="line"/>
      <point x="210" y="700" type="line"/>
      <point x="150" y="700" type="line"/>
    </contour>
    <contour>
      <point x="347" y="0" type="line"/>
      <point x="422" y="0" type="line"/>
      <point x="243" y="347" type="line"/>
      <point x="198" y="304" type="line"/>
    </contour>
  </outline>
</glyph>
<glyph name="l" format="2">
  <advance width="212"/>
  <unicode hex="006C"/>
  <outline>
    <contour>
      <point x="33" y="0" type="line"/>
      <point x="93" y="0" type="line"/>
      <point x="212" y="700" type="line"/>
      <point x="152" y="700" type="line"/>
    </contour>
  </outline>
</glyph>
<glyph name="m" format="2">
  <advance width="913"/>
  <unicode hex="006D"/>
  <outline>
    <contour>
      <point x="33" y="0" type="line"/>
      <point x="93" y="0" type="line"/>
      <point x="161" y="408" type="line"/>
      <point x="173" y="500" type="line"/>
      <point x="117" y="500" type="line"/>
    </contour>
    <contour>
      <point x="392" y="0" type="line"/>
      <point x="452" y="0" type="line"/>
      <point x="500" y="286" type="line"/>
      <point x="435" y="258" type="line"/>
    </contour>
    <contour>
      <point x="751" y="0" type="line"/>
      <point x="811" y="0" type="line"/>
      <point x="859" y="284" type="line"/>
      <point x="794" y="258" type="line"/>
    </contour>
    <component base="arch" xOffset="96"/>
    <component base="arch" xOffset="455"/>
  </outline>
</glyph>
<glyph name="n" format="2">
  <advance width="554"/>
  <unicode hex="006E"/>
  <anchor x="243" y="0" name="bottom"/>
  <anchor x="324" y="500" name="top"/>
  <outline>
    <contour>
      <point x="33" y="0" type="line"/>
      <point x="93" y="0" type="line"/>
      <point x="161" y="408" type="line"/>
      <point x="173" y="500" type="line"/>
      <point x="117" y="500" type="line"/>
    </contour>
    <contour>
      <point x="392" y="0" type="line"/>
      <point x="452" y="0" type="line"/>
      <point x="496" y="258" type="line"/>
      <point x="435" y="258" type="line"/>
    </contour>
    <component base="arch" xOffset="96"/>
  </outline>
</glyph>
<glyph name="o" format="2">
  <advance width="579"/>
  <unicode hex="006F"/>
  <anchor x="329" y="500" name="top"/>
  <outline>
    <contour>
      <point x="251" y="-12" type="curve" smooth="yes"/>
      <point x="391" y="-12"/>
      <point x="508" y="94"/>
      <point x="533" y="246" type="curve" smooth="yes"/>
      <point x="559" y="402"/>
      <point x="475" y="512"/>
      <point x="329" y="512" type="curve" smooth="yes"/>
      <point x="188" y="512"/>
      <point x="71" y="406"/>
      <point x="46" y="254" type="curve" smooth="yes"/>
      <point x="20" y="98"/>
      <point x="105" y="-12"/>
    </contour>
    <contour>
      <point x="252" y="43" type="curve" smooth="yes"/>
      <point x="145" y="43"/>
      <point x="84" y="126"/>
      <point x="104" y="246" type="curve" smooth="yes"/>
      <point x="125" y="370"/>
      <point x="218" y="457"/>
      <point x="328" y="457" type="curve" smooth="yes"/>
      <point x="436" y="457"/>
      <point x="495" y="374"/>
      <point x="475" y="254" type="curve" smooth="yes"/>
      <point x="454" y="130"/>
      <point x="361" y="43"/>
    </contour>
  </outline>
</glyph>
<glyph name="q" format="2">
  <advance width="587"/>
  <unicode hex="0071"/>
  <outline>
    <contour>
      <point x="372" y="-200" type="line"/>
      <point x="432" y="-200" type="line"/>
      <point x="549" y="500" type="line"/>
      <point x="492" y="500" type="line"/>
      <point x="473" y="407" type="line"/>
    </contour>
    <component base="Bowl"/>
  </outline>
</glyph>
<glyph name="r" format="2">
  <advance width="324"/>
  <unicode hex="0072"/>
  <anchor x="85" y="0" name="bottom"/>
  <anchor x="197" y="500" name="top"/>
  <outline>
    <contour>
      <point x="33" y="0" type="line"/>
      <point x="93" y="0" type="line"/>
      <point x="177" y="500" type="line"/>
      <point x="117" y="500" type="line"/>
    </contour>
    <contour>
      <point x="104" y="276" type="curve"/>
      <point x="140" y="278" type="line"/>
      <point x="161" y="403"/>
      <point x="259" y="447"/>
      <point x="347" y="447" type="curve"/>
      <point x="352" y="502" type="line"/>
      <point x="244" y="502"/>
      <point x="131" y="438"/>
    </contour>
  </outline>
</glyph>
<glyph name="s" format="2">
  <advance width="466"/>
  <unicode hex="0073"/>
  <anchor x="205" y="-12" name="bottom"/>
  <anchor x="288" y="500" name="top"/>
  <outline>
    <contour>
      <point x="205" y="-12" type="curve" smooth="yes"/>
      <point x="314" y="-12"/>
      <point x="403" y="54"/>
      <point x="403" y="147" type="curve" smooth="yes"/>
      <point x="403" y="206"/>
      <point x="365" y="256"/>
      <point x="269" y="282" type="curve" smooth="yes"/>
      <point x="228" y="293" type="line" smooth="yes"/>
      <point x="171" y="308"/>
      <point x="144" y="334"/>
      <point x="144" y="360" type="curve" smooth="yes"/>
      <point x="144" y="415"/>
      <point x="203" y="457"/>
      <point x="278" y="457" type="curve" smooth="yes"/>
      <point x="343" y="457"/>
      <point x="376" y="440"/>
      <point x="391" y="388" type="curve"/>
      <point x="447" y="407" type="line"/>
      <point x="432" y="471"/>
      <point x="376" y="512"/>
      <point x="288" y="512" type="curve" smooth="yes"/>
      <point x="166" y="512"/>
      <point x="84" y="449"/>
      <point x="84" y="354" type="curve" smooth="yes"/>
      <point x="84" y="301"/>
      <point x="128" y="257"/>
      <point x="205" y="236" type="curve" smooth="yes"/>
      <point x="252" y="223" type="line" smooth="yes"/>
      <point x="312" y="206"/>
      <point x="342" y="183"/>
      <point x="342" y="145" type="curve" smooth="yes"/>
      <point x="342" y="77"/>
      <point x="265" y="43"/>
      <point x="195" y="43" type="curve" smooth="yes"/>
      <point x="140" y="43"/>
      <point x="91" y="73"/>
      <point x="77" y="123" type="curve"/>
      <point x="21" y="107" type="line"/>
      <point x="32" y="49"/>
      <point x="89" y="-12"/>
    </contour>
  </outline>
</glyph>
<glyph name="t" format="2">
  <advance width="379"/>
  <unicode hex="0074"/>
  <anchor x="177" y="0" name="bottom"/>
  <anchor x="285" y="726" name="top_caron"/>
  <outline>
    <contour>
      <point x="218" y="-12" type="curve" smooth="yes"/>
      <point x="243" y="-12"/>
      <point x="266" y="-9"/>
      <point x="310" y="12" type="curve"/>
      <point x="290" y="66" type="line"/>
      <point x="256" y="49"/>
      <point x="242" y="43"/>
      <point x="225" y="43" type="curve" smooth="yes"/>
      <point x="173" y="43"/>
      <point x="149" y="72"/>
      <point x="158" y="126" type="curve" smooth="yes"/>
      <point x="247" y="656" type="line"/>
      <point x="187" y="656" type="line"/>
      <point x="99" y="130" type="line" smooth="yes"/>
      <point x="84" y="41"/>
      <point x="129" y="-12"/>
    </contour>
    <contour>
      <point x="63" y="445" type="line"/>
      <point x="371" y="445" type="line"/>
      <point x="380" y="500" type="line"/>
      <point x="72" y="500" type="line"/>
    </contour>
  </outline>
</glyph>
<glyph name="u" format="2">
  <advance width="554"/>
  <unicode hex="0075"/>
  <anchor x="437" y="0" name="ogonek"/>
  <anchor x="310" y="500" name="top"/>
  <outline>
    <contour>
      <point x="381" y="0" type="line"/>
      <point x="437" y="0" type="line"/>
      <point x="521" y="500" type="line"/>
      <point x="461" y="500" type="line"/>
      <point x="393" y="92" type="line"/>
    </contour>
    <contour>
      <point x="54" y="216" type="line"/>
      <point x="119" y="242" type="line"/>
      <point x="162" y="500" type="line"/>
      <point x="102" y="500" type="line"/>
    </contour>
    <component base="arch" xScale="-1.0" yScale="-1.0" xOffset="458" yOffset="500"/>
  </outline>
</glyph>
<glyph name="v" format="2">
  <advance width="507"/>
  <unicode hex="0076"/>
  <outline>
    <contour>
      <point x="181" y="0" type="line"/>
      <point x="245" y="0" type="line"/>
      <point x="539" y="500" type="line"/>
      <point x="474" y="500" type="line"/>
    </contour>
    <contour>
      <point x="180" y="0" type="line"/>
      <point x="238" y="0" type="line"/>
      <point x="111" y="500" type="line"/>
      <point x="52" y="500" type="line"/>
    </contour>
  </outline>
</glyph>
<glyph name="w" format="2">
  <advance width="764"/>
  <unicode hex="0077"/>
  <anchor x="424" y="500" name="top"/>
  <outline>
    <contour>
      <point x="139" y="0" type="line"/>
      <point x="199" y="0" type="line"/>
      <point x="111" y="500" type="line"/>
      <point x="52" y="500" type="line"/>
    </contour>
    <contour>
      <point x="139" y="0" type="line"/>
      <point x="200" y="0" type="line"/>
      <point x="454" y="500" type="line"/>
      <point x="394" y="500" type="line"/>
    </contour>
    <contour>
      <point x="482" y="0" type="line"/>
      <point x="542" y="0" type="line"/>
      <point x="454" y="500" type="line"/>
      <point x="395" y="500" type="line"/>
    </contour>
    <contour>
      <point x="481" y="0" type="line"/>
      <point x="543" y="0" type="line"/>
      <point x="796" y="500" type="line"/>
      <point x="735" y="500" type="line"/>
    </contour>
  </outline>
</glyph>
<glyph name="x" format="2">
  <advance width="452"/>
  <unicode hex="0078"/>
  <outline>
    <contour>
      <point x="-32" y="0" type="line"/>
      <point x="44" y="0" type="line"/>
      <point x="243" y="233" type="line"/>
      <point x="474" y="500" type="line"/>
      <point x="400" y="500" type="line"/>
      <point x="220" y="288" type="line"/>
    </contour>
    <contour>
      <point x="329" y="0" type="line"/>
      <point x="400" y="0" type="line"/>
      <point x="246" y="288" type="line"/>
      <point x="137" y="500" type="line"/>
      <point x="67" y="500" type="line"/>
      <point x="212" y="233" type="line"/>
    </contour>
  </outline>
</glyph>
<glyph name="y" format="2">
  <advance width="506"/>
  <unicode hex="0079"/>
  <anchor x="294" y="500" name="top"/>
  <outline>
    <contour>
      <point x="25" y="-212" type="curve" smooth="yes"/>
      <point x="105" y="-212"/>
      <point x="146" y="-167"/>
      <point x="196" y="-82" type="curve" smooth="yes"/>
      <point x="538" y="500" type="line"/>
      <point x="474" y="500" type="line"/>
      <point x="201" y="39" type="line"/>
      <point x="122" y="-95" type="line" smooth="yes"/>
      <point x="100" y="-133"/>
      <point x="71" y="-157"/>
      <point x="31" y="-157" type="curve" smooth="yes"/>
      <point x="19" y="-157"/>
      <point x="-3" y="-151"/>
      <point x="-36" y="-138" type="curve"/>
      <point x="-63" y="-187" type="line"/>
      <point x="-26" y="-203"/>
      <point x="2" y="-212"/>
    </contour>
    <contour>
      <point x="180" y="0" type="line"/>
      <point x="240" y="0" type="line"/>
      <point x="229" y="40" type="line"/>
      <point x="113" y="500" type="line"/>
      <point x="52" y="500" type="line"/>
    </contour>
  </outline>
</glyph>
<glyph name="z" format="2">
  <advance width="497"/>
  <unicode hex="007A"/>
  <anchor x="289" y="500" name="top"/>
  <outline>
    <contour>
      <point x="64" y="20" type="line"/>
      <point x="478" y="451" type="line"/>
      <point x="432" y="483" type="line"/>
      <point x="17" y="52" type="line"/>
    </contour>
    <contour>
      <point x="8" y="0" type="line"/>
      <point x="405" y="0" type="line"/>
      <point x="414" y="55" type="line"/>
      <point x="60" y="55" type="line"/>
      <point x="17" y="52" type="line"/>
    </contour>
    <contour>
      <point x="83" y="445" type="line"/>
      <point x="435" y="445" type="line"/>
      <point x="478" y="451" type="line"/>
      <point x="486" y="500" type="line"/>
      <point x="92" y="500" type="line"/>
    </contour>
  </outline>
</glyph>
<glyph name="braceleft" format="2">
  <advance width="386"/>
  <unicode hex="007B"/>
  <outline>
    <contour>
      <point x="78" y="339" type="line"/>
      <point x="209" y="339"/>
      <point x="246" y="372"/>
      <point x="269" y="509" type="curve" smooth="yes"/>
      <point x="300" y="692"/>
      <point x="330" y="740"/>
      <point x="408" y="742" type="curve"/>
      <point x="414" y="800" type="line"/>
      <point x="284" y="800"/>
      <point x="245" y="744"/>
      <point x="206" y="516" type="curve" smooth="yes"/>
      <point x="188" y="404"/>
      <point x="161" y="375"/>
      <point x="81" y="375" type="curve"/>
    </contour>
    <contour>
      <point x="267" y="-100" type="curve"/>
      <point x="273" y="-42" type="line"/>
      <point x="195" y="-40"/>
      <point x="185" y="4"/>
      <point x="215" y="183" type="curve" smooth="yes"/>
      <point x="238" y="324"/>
      <point x="211" y="361"/>
      <point x="80" y="361" type="curve"/>
      <point x="77" y="325" type="line"/>
      <point x="157" y="325"/>
      <point x="170" y="300"/>
      <point x="152" y="192" type="curve" smooth="yes"/>
      <point x="113" y="-40"/>
      <point x="137" y="-100"/>
    </contour>
  </outline>
</glyph>
<glyph name="bar" format="2">
  <advance width="258"/>
  <unicode hex="007C"/>
  <outline>
    <contour>
      <point x="21" y="-220" type="line"/>
      <point x="79" y="-220" type="line"/>
      <point x="248" y="790" type="line"/>
      <point x="190" y="790" type="line"/>
    </contour>
  </outline>
</glyph>
<glyph name="asciitilde" format="2">
  <advance width="530"/>
  <unicode hex="007E"/>
  <outline>
    <contour>
      <point x="353" y="237" type="curve" smooth="yes"/>
      <point x="420" y="237"/>
      <point x="469" y="294"/>
      <point x="489" y="366" type="curve"/>
      <point x="434" y="370" type="line"/>
      <point x="418" y="326"/>
      <point x="392" y="294"/>
      <point x="354" y="294" type="curve" smooth="yes"/>
      <point x="332" y="294"/>
      <point x="312" y="321"/>
      <point x="296" y="338" type="curve" smooth="yes"/>
      <point x="276" y="369"/>
      <point x="243" y="396"/>
      <point x="197" y="396" type="curve" smooth="yes"/>
      <point x="131" y="396"/>
      <point x="79" y="337"/>
      <point x="63" y="267" type="curve"/>
      <point x="117" y="263" type="line"/>
      <point x="133" y="308"/>
      <point x="159" y="339"/>
      <point x="196" y="339" type="curve" smooth="yes"/>
      <point x="212" y="339"/>
      <point x="229" y="327"/>
      <point x="257" y="293" type="curve" smooth="yes"/>
      <point x="277" y="260"/>
      <point x="302" y="237"/>
    </contour>
  </outline>
</glyph>
<glyph name="cent" format="2">
  <advance width="534"/>
  <unicode hex="00A2"/>
  <outline>
    <contour>
      <point x="218" y="0" type="line"/>
      <point x="273" y="0" type="line"/>
      <point x="393" y="700" type="line"/>
      <point x="337" y="700" type="line"/>
    </contour>
    <component base="c" xOffset="-23" yOffset="110"/>
  </outline>
</glyph>
<glyph name="sterling" format="2">
  <advance width="569"/>
  <unicode hex="00A3"/>
  <outline>
    <contour>
      <point x="107" y="122" type="line"/>
      <point x="173" y="133" type="line"/>
      <point x="238" y="517" type="line" smooth="yes"/>
      <point x="251" y="596"/>
      <point x="318" y="654"/>
      <point x="397" y="654" type="curve" smooth="yes"/>
      <point x="472" y="654"/>
      <point x="515" y="601"/>
      <point x="502" y="523" type="curve"/>
      <point x="562" y="509" type="line"/>
      <point x="584" y="636"/>
      <point x="513" y="712"/>
      <point x="398" y="712" type="curve" smooth="yes"/>
      <point x="285" y="712"/>
      <point x="193" y="634"/>
      <point x="174" y="521" type="curve" smooth="yes"/>
    </contour>
    <contour>
      <point x="44" y="0" type="line"/>
      <point x="104" y="0"/>
      <point x="159" y="48"/>
      <point x="173" y="133" type="curve"/>
      <point x="107" y="122" type="line"/>
      <point x="102" y="87"/>
      <point x="72" y="58"/>
      <point x="44" y="58" type="curve"/>
    </contour>
    <contour>
      <point x="8" y="0" type="line"/>
      <point x="477" y="0" type="line"/>
      <point x="487" y="58" type="line"/>
      <point x="18" y="58" type="line"/>
    </contour>
    <contour>
      <point x="57" y="291" type="line"/>
      <point x="399" y="291" type="line"/>
      <point x="409" y="350" type="line"/>
      <point x="67" y="350" type="line"/>
    </contour>
  </outline>
</glyph>
<glyph name="currency" format="2">
  <advance width="538"/>
  <unicode hex="00A4"/>
  <outline>
    <contour>
      <point x="266" y="189" type="curve" smooth="yes"/>
      <point x="358" y="189"/>
      <point x="435" y="254"/>
      <point x="450" y="346" type="curve" smooth="yes"/>
      <point x="465" y="440"/>
      <point x="408" y="506"/>
      <point x="311" y="506" type="curve" smooth="yes"/>
      <point x="219" y="506"/>
      <point x="143" y="443"/>
      <point x="128" y="354" type="curve" smooth="yes"/>
      <point x="113" y="257"/>
      <point x="170" y="189"/>
    </contour>
    <contour>
      <point x="106" y="162" type="line"/>
      <point x="189" y="234" type="line"/>
      <point x="153" y="272" type="line"/>
      <point x="72" y="201" type="line"/>
    </contour>
    <contour>
      <point x="405" y="162" type="line"/>
      <point x="450" y="201" type="line"/>
      <point x="400" y="261" type="line"/>
      <point x="355" y="222" type="line"/>
    </contour>
    <contour>
      <point x="267" y="243" type="curve" smooth="yes"/>
      <point x="210" y="243"/>
      <point x="177" y="286"/>
      <point x="187" y="346" type="curve" smooth="yes"/>
      <point x="198" y="408"/>
      <point x="248" y="452"/>
      <point x="310" y="452" type="curve" smooth="yes"/>
      <point x="368" y="452"/>
      <point x="401" y="411"/>
      <point x="391" y="354" type="curve" smooth="yes"/>
      <point x="380" y="289"/>
      <point x="329" y="243"/>
    </contour>
    <contour>
      <point x="183" y="429" type="line"/>
      <point x="228" y="468" type="line"/>
      <point x="166" y="540" type="line"/>
      <point x="122" y="500" type="line"/>
    </contour>
    <contour>
      <point x="424" y="435" type="line"/>
      <point x="500" y="500" type="line"/>
      <point x="465" y="540" type="line"/>
      <point x="388" y="473" type="line"/>
    </contour>
  </outline>
</glyph>
<glyph name="yen" format="2">
  <advance width="522"/>
  <unicode hex="00A5"/>
  <outline>
    <contour>
      <point x="301" y="296" type="line"/>
      <point x="589" y="712" type="line"/>
      <point x="517" y="712" type="line"/>
      <point x="254" y="328" type="line"/>
    </contour>
    <contour>
      <point x="186" y="0" type="line"/>
      <point x="250" y="0" type="line"/>
      <point x="306" y="336" type="line"/>
      <point x="242" y="336" type="line"/>
    </contour>
    <contour>
      <point x="81" y="194" type="line"/>
      <point x="421" y="194" type="line"/>
      <point x="429" y="246" type="line"/>
      <point x="89" y="246" type="line"/>
    </contour>
    <contour>
      <point x="98" y="296" type="line"/>
      <point x="438" y="296" type="line"/>
      <point x="446" y="348" type="line"/>
      <point x="106" y="348" type="line"/>
    </contour>
    <contour>
      <point x="237" y="296" type="line"/>
      <point x="292" y="328" type="line"/>
      <point x="157" y="712" type="line"/>
      <point x="87" y="712" type="line"/>
    </contour>
  </outline>
</glyph>
<glyph name="brokenbar" format="2">
  <advance width="258"/>
  <unicode hex="00A6"/>
  <outline>
    <contour>
      <point x="117" y="350" type="line"/>
      <point x="175" y="350" type="line"/>
      <point x="248" y="790" type="line"/>
      <point x="190" y="790" type="line"/>
    </contour>
    <contour>
      <point x="21" y="-220" type="line"/>
      <point x="79" y="-220" type="line"/>
      <point x="153" y="220" type="line"/>
      <point x="95" y="220" type="line"/>
    </contour>
  </outline>
</glyph>
<glyph name="section" format="2">
  <advance width="588"/>
  <unicode hex="00A7"/>
  <outline>
    <contour>
      <point x="249" y="-90" type="curve" smooth="yes"/>
      <point x="370" y="-90"/>
      <point x="442" y="-25"/>
      <point x="456" y="57" type="curve" smooth="yes"/>
      <point x="467" y="123"/>
      <point x="418" y="186"/>
      <point x="319" y="211" type="curve" smooth="yes"/>
      <point x="264" y="225" type="line" smooth="yes"/>
      <point x="215" y="237"/>
      <point x="187" y="260"/>
      <point x="195" y="307" type="curve" smooth="yes"/>
      <point x="204" y="364"/>
      <point x="251" y="402"/>
      <point x="316" y="402" type="curve" smooth="yes"/>
      <point x="371" y="402"/>
      <point x="428" y="373"/>
      <point x="440" y="324" type="curve"/>
      <point x="491" y="338" type="line"/>
      <point x="483" y="398"/>
      <point x="434" y="459"/>
      <point x="333" y="459" type="curve" smooth="yes"/>
      <point x="218" y="459"/>
      <point x="146" y="404"/>
      <point x="130" y="310" type="curve" smooth="yes"/>
      <point x="117" y="230"/>
      <point x="170" y="184"/>
      <point x="240" y="166" type="curve" smooth="yes"/>
      <point x="296" y="152" type="line" smooth="yes"/>
      <point x="361" y="136"/>
      <point x="399" y="107"/>
      <point x="391" y="60" type="curve" smooth="yes"/>
      <point x="382" y="5"/>
      <point x="325" y="-33"/>
      <point x="241" y="-33" type="curve" smooth="yes"/>
      <point x="176" y="-33"/>
      <point x="135" y="3"/>
      <point x="127" y="48" type="curve"/>
      <point x="64" y="30" type="line"/>
      <point x="74" y="-31"/>
      <point x="131" y="-90"/>
    </contour>
    <contour>
      <point x="286" y="163" type="curve" smooth="yes"/>
      <point x="407" y="163"/>
      <point x="479" y="228"/>
      <point x="493" y="310" type="curve" smooth="yes"/>
      <point x="504" y="376"/>
      <point x="457" y="440"/>
      <point x="357" y="465" type="curve" smooth="yes"/>
      <point x="301" y="479" type="line" smooth="yes"/>
      <point x="252" y="491"/>
      <point x="224" y="513"/>
      <point x="232" y="560" type="curve" smooth="yes"/>
      <point x="241" y="617"/>
      <point x="292" y="655"/>
      <point x="363" y="655" type="curve" smooth="yes"/>
      <point x="426" y="655"/>
      <point x="467" y="626"/>
      <point x="477" y="577" type="curve"/>
      <point x="539" y="594" type="line"/>
      <point x="530" y="652"/>
      <point x="476" y="712"/>
      <point x="370" y="712" type="curve" smooth="yes"/>
      <point x="255" y="712"/>
      <point x="183" y="657"/>
      <point x="167" y="563" type="curve" smooth="yes"/>
      <point x="154" y="483"/>
      <point x="208" y="439"/>
      <point x="277" y="420" type="curve" smooth="yes"/>
      <point x="333" y="405" type="line" smooth="yes"/>
      <point x="398" y="387"/>
      <point x="436" y="360"/>
      <point x="428" y="313" type="curve" smooth="yes"/>
      <point x="420" y="260"/>
      <point x="367" y="223"/>
      <point x="291" y="223" type="curve" smooth="yes"/>
      <point x="219" y="223"/>
      <point x="175" y="258"/>
      <point x="164" y="301" type="curve"/>
      <point x="129" y="288" type="line"/>
      <point x="136" y="225"/>
      <point x="184" y="163"/>
    </contour>
  </outline>
</glyph>
<glyph name="copyright" format="2">
  <advance width="823"/>
  <unicode hex="00A9"/>
  <anchor x="212" y="133" name="bottom"/>
  <anchor x="280" y="548" name="top"/>
  <outline>
    <contour>
      <point x="393" y="152" type="curve" smooth="yes"/>
      <point x="462" y="152"/>
      <point x="533" y="192"/>
      <point x="572" y="255" type="curve"/>
      <point x="521" y="284" type="line"/>
      <point x="492" y="239"/>
      <point x="441" y="203"/>
      <point x="388" y="203" type="curve" smooth="yes"/>
      <point x="316" y="203"/>
      <point x="274" y="261"/>
      <point x="288" y="341" type="curve" smooth="yes"/>
      <point x="302" y="432"/>
      <point x="370" y="496"/>
      <point x="450" y="496" type="curve" smooth="yes"/>
      <point x="495" y="496"/>
      <point x="533" y="469"/>
      <point x="546" y="427" type="curve"/>
      <point x="599" y="442" type="line"/>
      <point x="580" y="502"/>
      <point x="520" y="548"/>
      <point x="444" y="548" type="curve" smooth="yes"/>
      <point x="338" y="548"/>
      <point x="250" y="469"/>
      <point x="230" y="357" type="curve" smooth="yes"/>
      <point x="211" y="234"/>
      <point x="282" y="152"/>
    </contour>
    <contour>
      <point x="372" y="-11" type="curve" smooth="yes"/>
      <point x="570" y="-11"/>
      <point x="756" y="148"/>
      <point x="789" y="346" type="curve" smooth="yes"/>
      <point x="823" y="548"/>
      <point x="687" y="712"/>
      <point x="485" y="712" type="curve" smooth="yes"/>
      <point x="287" y="712"/>
      <point x="101" y="552"/>
      <point x="67" y="354" type="curve" smooth="yes"/>
      <point x="34" y="152"/>
      <point x="170" y="-11"/>
    </contour>
    <contour>
      <point x="374" y="45" type="curve" smooth="yes"/>
      <point x="203" y="45"/>
      <point x="99" y="170"/>
      <point x="128" y="346" type="curve" smooth="yes"/>
      <point x="158" y="527"/>
      <point x="309" y="656"/>
      <point x="484" y="656" type="curve" smooth="yes"/>
      <point x="654" y="656"/>
      <point x="758" y="530"/>
      <point x="728" y="354" type="curve" smooth="yes"/>
      <point x="698" y="173"/>
      <point x="548" y="45"/>
    </contour>
  </outline>
</glyph>
<glyph name="ordfeminine" format="2">
  <advance width="378"/>
  <unicode hex="00AA"/>
  <anchor x="349" y="400" name="ogonek"/>
  <anchor x="248" y="700" name="top"/>
  <outline>
    <contour>
      <point x="195" y="393" type="curve" smooth="yes"/>
      <point x="280" y="393"/>
      <point x="345" y="476"/>
      <point x="345" y="590" type="curve" smooth="yes"/>
      <point x="345" y="661"/>
      <point x="307" y="707"/>
      <point x="242" y="707" type="curve" smooth="yes"/>
      <point x="141" y="707"/>
      <point x="80" y="614"/>
      <point x="80" y="515" type="curve" smooth="yes"/>
      <point x="80" y="443"/>
      <point x="129" y="393"/>
    </contour>
    <contour>
      <point x="212" y="446" type="curve" smooth="yes"/>
      <point x="168" y="446"/>
      <point x="140" y="479"/>
      <point x="140" y="526" type="curve" smooth="yes"/>
      <point x="140" y="589"/>
      <point x="185" y="654"/>
      <point x="250" y="654" type="curve" smooth="yes"/>
      <point x="292" y="654"/>
      <point x="319" y="623"/>
      <point x="319" y="576" type="curve" smooth="yes"/>
      <point x="319" y="515"/>
      <point x="277" y="446"/>
    </contour>
    <contour>
      <point x="294" y="400" type="line"/>
      <point x="349" y="400" type="line"/>
      <point x="400" y="700" type="line"/>
      <point x="342" y="700" type="line"/>
      <point x="301" y="456" type="line"/>
    </contour>
  </outline>
</glyph>
<glyph name="logicalnot" format="2">
  <advance width="520"/>
  <unicode hex="00AC"/>
  <outline>
    <contour>
      <point x="78" y="299" type="line"/>
      <point x="438" y="299" type="line"/>
      <point x="448" y="356" type="line"/>
      <point x="88" y="356" type="line"/>
    </contour>
    <contour>
      <point x="365" y="201" type="line"/>
      <point x="422" y="201" type="line"/>
      <point x="448" y="356" type="line"/>
      <point x="391" y="356" type="line"/>
    </contour>
  </outline>
</glyph>
<glyph name="registered" format="2">
  <advance width="626"/>
  <unicode hex="00AE"/>
  <outline>
    <contour>
      <point x="305" y="176" type="curve" smooth="yes"/>
      <point x="451" y="176"/>
      <point x="588" y="294"/>
      <point x="613" y="440" type="curve" smooth="yes"/>
      <point x="638" y="590"/>
      <point x="536" y="712"/>
      <point x="386" y="712" type="curve" smooth="yes"/>
      <point x="240" y="712"/>
      <point x="103" y="594"/>
      <point x="78" y="448" type="curve" smooth="yes"/>
      <point x="53" y="298"/>
      <point x="155" y="176"/>
    </contour>
    <contour>
      <point x="305" y="228" type="curve" smooth="yes"/>
      <point x="182" y="228"/>
      <point x="110" y="315"/>
      <point x="131" y="440" type="curve" smooth="yes"/>
      <point x="152" y="569"/>
      <point x="259" y="660"/>
      <point x="386" y="660" type="curve" smooth="yes"/>
      <point x="509" y="660"/>
      <point x="581" y="573"/>
      <point x="560" y="448" type="curve" smooth="yes"/>
      <point x="539" y="319"/>
      <point x="432" y="228"/>
    </contour>
    <contour>
      <point x="222" y="301" type="line"/>
      <point x="269" y="301" type="line"/>
      <point x="287" y="409" type="line"/>
      <point x="340" y="409" type="line"/>
      <point x="384" y="301" type="line"/>
      <point x="436" y="301" type="line"/>
      <point x="387" y="417" type="line"/>
      <point x="425" y="431"/>
      <point x="451" y="461"/>
      <point x="457" y="497" type="curve" smooth="yes"/>
      <point x="467" y="553"/>
      <point x="429" y="593"/>
      <point x="370" y="593" type="curve" smooth="yes"/>
      <point x="270" y="593" type="line"/>
    </contour>
    <contour>
      <point x="294" y="453" type="line"/>
      <point x="310" y="550" type="line"/>
      <point x="365" y="550" type="line" smooth="yes"/>
      <point x="398" y="550"/>
      <point x="415" y="532"/>
      <point x="411" y="505" type="curve" smooth="yes"/>
      <point x="406" y="475"/>
      <point x="378" y="453"/>
      <point x="350" y="453" type="curve" smooth="yes"/>
    </contour>
  </outline>
</glyph>
<glyph name="degree" format="2">
  <advance width="364"/>
  <unicode hex="00B0"/>
  <outline>
    <contour>
      <point x="218" y="447" type="curve" smooth="yes"/>
      <point x="288" y="447"/>
      <point x="358" y="507"/>
      <point x="369" y="578" type="curve" smooth="yes"/>
      <point x="382" y="651"/>
      <point x="329" y="712"/>
      <point x="255" y="712" type="curve" smooth="yes"/>
      <point x="185" y="712"/>
      <point x="117" y="655"/>
      <point x="106" y="586" type="curve" smooth="yes"/>
      <point x="93" y="511"/>
      <point x="144" y="447"/>
    </contour>
    <contour>
      <point x="220" y="502" type="curve" smooth="yes"/>
      <point x="183" y="502"/>
      <point x="158" y="537"/>
      <point x="164" y="578" type="curve" smooth="yes"/>
      <point x="172" y="621"/>
      <point x="213" y="657"/>
      <point x="254" y="657" type="curve" smooth="yes"/>
      <point x="292" y="657"/>
      <point x="317" y="625"/>
      <point x="311" y="586" type="curve" smooth="yes"/>
      <point x="303" y="541"/>
      <point x="262" y="502"/>
    </contour>
  </outline>
</glyph>
<glyph name="plusminus" format="2">
  <advance width="620"/>
  <unicode hex="00B1"/>
  <outline>
    <contour>
      <point x="263" y="139" type="line"/>
      <point x="320" y="139" type="line"/>
      <point x="389" y="547" type="line"/>
      <point x="332" y="547" type="line"/>
    </contour>
    <contour>
      <point x="96" y="314" type="line"/>
      <point x="546" y="314" type="line"/>
      <point x="555" y="371" type="line"/>
      <point x="105" y="371" type="line"/>
    </contour>
    <contour>
      <point x="43" y="0" type="line"/>
      <point x="493" y="0" type="line"/>
      <point x="502" y="51" type="line"/>
      <point x="52" y="51" type="line"/>
    </contour>
  </outline>
</glyph>
<glyph name="micro" format="2">
  <advance width="554"/>
  <unicode hex="00B5"/>
  <outline>
    <contour>
      <point x="-15" y="-200" type="line"/>
      <point x="45" y="-200" type="line"/>
      <point x="90" y="72" type="line"/>
      <point x="91" y="74" type="line"/>
      <point x="162" y="500" type="line"/>
      <point x="102" y="500" type="line"/>
    </contour>
    <contour>
      <point x="218" y="-12" type="curve" smooth="yes"/>
      <point x="345" y="-12"/>
      <point x="428" y="81"/>
      <point x="455" y="241" type="curve"/>
      <point x="418" y="245" type="line"/>
      <point x="397" y="120"/>
      <point x="327" y="44"/>
      <point x="230" y="44" type="curve" smooth="yes"/>
      <point x="149" y="44"/>
      <point x="91" y="76"/>
      <point x="119" y="242" type="curve"/>
      <point x="74" y="216" type="line"/>
      <point x="48" y="64"/>
      <point x="108" y="-12"/>
    </contour>
    <contour>
      <point x="381" y="0" type="line"/>
      <point x="437" y="0" type="line"/>
      <point x="521" y="500" type="line"/>
      <point x="461" y="500" type="line"/>
      <point x="393" y="92" type="line"/>
    </contour>
  </outline>
</glyph>
<glyph name="paragraph" format="2">
  <advance width="531"/>
  <unicode hex="00B6"/>
  <outline>
    <contour>
      <point x="197" y="-84" type="line"/>
      <point x="261" y="-84" type="line"/>
      <point x="382" y="642" type="line"/>
      <point x="432" y="642" type="line"/>
      <point x="311" y="-84" type="line"/>
      <point x="375" y="-84" type="line"/>
      <point x="506" y="700" type="line"/>
      <point x="301" y="700" type="line" smooth="yes"/>
      <point x="185" y="700"/>
      <point x="91" y="613"/>
      <point x="70" y="487" type="curve" smooth="yes"/>
      <point x="48" y="358"/>
      <point x="117" y="266"/>
      <point x="233" y="266" type="curve" smooth="yes"/>
      <point x="255" y="266" type="line"/>
    </contour>
  </outline>
</glyph>
<glyph name="ordmasculine" format="2">
  <advance width="366"/>
  <unicode hex="00BA"/>
  <anchor x="182" y="400" name="bottom"/>
  <anchor x="182" y="550" name="center"/>
  <anchor x="323" y="406" name="ogonek"/>
  <anchor x="182" y="700" name="top"/>
  <anchor x="346" y="700" name="topright"/>
  <outline>
    <contour>
      <point x="212" y="393" type="curve" smooth="yes"/>
      <point x="298" y="393"/>
      <point x="370" y="456"/>
      <point x="385" y="546" type="curve" smooth="yes"/>
      <point x="400" y="640"/>
      <point x="346" y="707"/>
      <point x="255" y="707" type="curve" smooth="yes"/>
      <point x="168" y="707"/>
      <point x="97" y="644"/>
      <point x="82" y="554" type="curve" smooth="yes"/>
      <point x="66" y="460"/>
      <point x="120" y="393"/>
    </contour>
    <contour>
      <point x="213" y="448" type="curve" smooth="yes"/>
      <point x="161" y="448"/>
      <point x="132" y="488"/>
      <point x="142" y="546" type="curve" smooth="yes"/>
      <point x="152" y="608"/>
      <point x="199" y="652"/>
      <point x="254" y="652" type="curve" smooth="yes"/>
      <point x="305" y="652"/>
      <point x="335" y="612"/>
      <point x="325" y="554" type="curve" smooth="yes"/>
      <point x="314" y="492"/>
      <point x="268" y="448"/>
    </contour>
  </outline>
</glyph>
<glyph name="AE" format="2">
  <advance width="996"/>
  <unicode hex="00C6"/>
  <outline>
    <contour>
      <point x="-32" y="0" type="line"/>
      <point x="42" y="0" type="line"/>
      <point x="595" y="700" type="line"/>
      <point x="524" y="700" type="line"/>
    </contour>
    <contour>
      <point x="191" y="217" type="line"/>
      <point x="511" y="217" type="line"/>
      <point x="521" y="275" type="line"/>
      <point x="201" y="275" type="line"/>
    </contour>
    <contour>
      <point x="525" y="0" type="line"/>
      <point x="864" y="0" type="line"/>
      <point x="874" y="58" type="line"/>
      <point x="534" y="58" type="line"/>
    </contour>
    <contour>
      <point x="461" y="0" type="line"/>
      <point x="525" y="0" type="line"/>
      <point x="642" y="700" type="line"/>
      <point x="578" y="700" type="line"/>
    </contour>
    <contour>
      <point x="580" y="332" type="line"/>
      <point x="896" y="332" type="line"/>
      <point x="905" y="390" type="line"/>
      <point x="590" y="390" type="line"/>
    </contour>
    <contour>
      <point x="520" y="642" type="line"/>
      <point x="972" y="642" type="line"/>
      <point x="981" y="700" type="line"/>
      <point x="529" y="700" type="line"/>
    </contour>
  </outline>
</glyph>
<glyph name="Idieresis" format="2">
  <advance width="266"/>
  <unicode hex="00CF"/>
  <anchor x="92" y="0" name="bottom"/>
  <anchor x="124" y="0" name="ogonek"/>
  <anchor x="204" y="670" name="top"/>
  <anchor x="97" y="700" name="topleft"/>
  <outline>
    <contour>
      <point x="171" y="800" type="curve" smooth="yes"/>
      <point x="193" y="800"/>
      <point x="211" y="818"/>
      <point x="211" y="840" type="curve" smooth="yes"/>
      <point x="211" y="862"/>
      <point x="193" y="880"/>
      <point x="171" y="880" type="curve" smooth="yes"/>
      <point x="149" y="880"/>
      <point x="131" y="862"/>
      <point x="131" y="840" type="curve" smooth="yes"/>
      <point x="131" y="818"/>
      <point x="149" y="800"/>
    </contour>
    <contour>
      <point x="293" y="800" type="curve" smooth="yes"/>
      <point x="315" y="800"/>
      <point x="333" y="818"/>
      <point x="333" y="840" type="curve" smooth="yes"/>
      <point x="333" y="862"/>
      <point x="315" y="880"/>
      <point x="293" y="880" type="curve" smooth="yes"/>
      <point x="271" y="880"/>
      <point x="253" y="862"/>
      <point x="253" y="840" type="curve" smooth="yes"/>
      <point x="253" y="818"/>
      <point x="271" y="800"/>
    </contour>
    <component base="I" xOffset="2"/>
  </outline>
</glyph>
<glyph name="Eth" format="2">
  <advance width="753"/>
  <unicode hex="00D0"/>
  <anchor x="448" y="670" name="top"/>
  <outline>
    <contour>
      <point x="92" y="320" type="line"/>
      <point x="407" y="320" type="line"/>
      <point x="416" y="378" type="line"/>
      <point x="101" y="378" type="line"/>
    </contour>
    <component base="D" xOffset="70"/>
  </outline>
</glyph>
<glyph name="multiply" format="2">
  <advance width="620"/>
  <unicode hex="00D7"/>
  <outline>
    <contour>
      <point x="437" y="109" type="line"/>
      <point x="482" y="148" type="line"/>
      <point x="198" y="487" type="line"/>
      <point x="154" y="447" type="line"/>
    </contour>
    <contour>
      <point x="138" y="109" type="line"/>
      <point x="532" y="447" type="line"/>
      <point x="497" y="487" type="line"/>
      <point x="104" y="148" type="line"/>
    </contour>
  </outline>
</glyph>
<glyph name="Oslash" format="2">
  <advance width="789"/>
  <unicode hex="00D8"/>
  <anchor x="356" y="0" name="bottom"/>
  <anchor x="412" y="350" name="center"/>
  <anchor x="664" y="10" name="ogonek"/>
  <anchor x="465" y="670" name="top"/>
  <anchor x="104" y="700" name="topleft"/>
  <anchor x="836" y="700" name="topright"/>
  <outline>
    <contour>
      <point x="3" y="0" type="line"/>
      <point x="89" y="0" type="line"/>
      <point x="819" y="700" type="line"/>
      <point x="733" y="700" type="line"/>
    </contour>
    <component base="O" xOffset="9"/>
  </outline>
</glyph>
<glyph name="Thorn" format="2">
  <advance width="570"/>
  <unicode hex="00DE"/>
  <outline>
    <contour>
      <point x="146" y="145" type="line"/>
      <point x="326" y="145" type="line" smooth="yes"/>
      <point x="442" y="145"/>
      <point x="537" y="233"/>
      <point x="558" y="358" type="curve" smooth="yes"/>
      <point x="580" y="488"/>
      <point x="500" y="579"/>
      <point x="368" y="579" type="curve" smooth="yes"/>
      <point x="218" y="579" type="line"/>
      <point x="208" y="521" type="line"/>
      <point x="362" y="521" type="line" smooth="yes"/>
      <point x="458" y="521"/>
      <point x="512" y="458"/>
      <point x="496" y="366" type="curve" smooth="yes"/>
      <point x="480" y="271"/>
      <point x="411" y="204"/>
      <point x="332" y="204" type="curve" smooth="yes"/>
      <point x="156" y="204" type="line"/>
    </contour>
    <contour>
      <point x="58" y="1" type="line"/>
      <point x="122" y="1" type="line"/>
      <point x="239" y="701" type="line"/>
      <point x="175" y="701" type="line"/>
    </contour>
  </outline>
</glyph>
<glyph name="germandbls" format="2">
  <advance width="555"/>
  <unicode hex="00DF"/>
  <outline>
    <contour>
      <point x="33" y="0" type="line"/>
      <point x="97" y="0" type="line"/>
      <point x="184" y="517" type="line" smooth="yes"/>
      <point x="197" y="596"/>
      <point x="268" y="654"/>
      <point x="353" y="654" type="curve" smooth="yes"/>
      <point x="434" y="654"/>
      <point x="481" y="601"/>
      <point x="468" y="525" type="curve" smooth="yes"/>
      <point x="454" y="441"/>
      <point x="405" y="389"/>
      <point x="269" y="389" type="curve" smooth="yes"/>
      <point x="267" y="389" type="line"/>
      <point x="258" y="331" type="line"/>
      <point x="303" y="331" type="line" smooth="yes"/>
      <point x="427" y="331"/>
      <point x="510" y="398"/>
      <point x="530" y="517" type="curve" smooth="yes"/>
      <point x="549" y="631"/>
      <point x="475" y="712"/>
      <point x="354" y="712" type="curve" smooth="yes"/>
      <point x="235" y="712"/>
      <point x="139" y="634"/>
      <point x="120" y="521" type="curve" smooth="yes"/>
    </contour>
    <contour>
      <point x="197" y="0" type="line"/>
      <point x="247" y="0" type="line" smooth="yes"/>
      <point x="384" y="0"/>
      <point x="474" y="66"/>
      <point x="493" y="179" type="curve" smooth="yes"/>
      <point x="514" y="302"/>
      <point x="432" y="377"/>
      <point x="279" y="377" type="curve" smooth="yes"/>
      <point x="265" y="377" type="line"/>
      <point x="255" y="318" type="line"/>
      <point x="303" y="318" type="line" smooth="yes"/>
      <point x="398" y="318"/>
      <point x="445" y="270"/>
      <point x="431" y="187" type="curve" smooth="yes"/>
      <point x="418" y="108"/>
      <point x="350" y="59"/>
      <point x="253" y="59" type="curve" smooth="yes"/>
      <point x="207" y="59" type="line"/>
    </contour>
  </outline>
</glyph>
<glyph name="ae" format="2">
  <advance width="879"/>
  <unicode hex="00E6"/>
  <anchor x="587" y="0" name="bottom"/>
  <anchor x="760" y="50" name="ogonek"/>
  <anchor x="662" y="500" name="top"/>
  <outline>
    <contour>
      <point x="377" y="180" type="line"/>
      <point x="429" y="180" type="line"/>
      <point x="444" y="266" type="line" smooth="yes"/>
      <point x="471" y="430"/>
      <point x="418" y="512"/>
      <point x="282" y="512" type="curve" smooth="yes"/>
      <point x="200" y="512"/>
      <point x="131" y="479"/>
      <point x="75" y="407" type="curve"/>
      <point x="127" y="379" type="line"/>
      <point x="163" y="430"/>
      <point x="215" y="457"/>
      <point x="281" y="457" type="curve" smooth="yes"/>
      <point x="377" y="457"/>
      <point x="394" y="397"/>
      <point x="385" y="270" type="curve" smooth="yes"/>
    </contour>
    <contour>
      <point x="192" y="-12" type="curve" smooth="yes"/>
      <point x="318" y="-12"/>
      <point x="408" y="87"/>
      <point x="433" y="240" type="curve"/>
      <point x="380" y="244" type="line"/>
      <point x="360" y="125"/>
      <point x="287" y="43"/>
      <point x="189" y="43" type="curve" smooth="yes"/>
      <point x="113" y="43"/>
      <point x="76" y="78"/>
      <point x="86" y="137" type="curve"/>
      <point x="97" y="203"/>
      <point x="145" y="242"/>
      <point x="241" y="242" type="curve" smooth="yes"/>
      <point x="419" y="242" type="line"/>
      <point x="428" y="297" type="line"/>
      <point x="238" y="297" type="line" smooth="yes"/>
      <point x="120" y="297"/>
      <point x="43" y="241"/>
      <point x="27" y="145" type="curve"/>
      <point x="11" y="47"/>
      <point x="72" y="-12"/>
    </contour>
    <component base="e" xOffset="336"/>
  </outline>
</glyph>
<glyph name="idieresis" format="2">
  <advance width="221"/>
  <unicode hex="00EF"/>
  <anchor x="186.978" y="710" name="top"/>
  <anchor x="68" y="0" name="bottom"/>
  <anchor x="97" y="0" name="ogonek"/>
  <outline>
    <contour>
      <point x="115" y="630" type="curve" smooth="yes"/>
      <point x="137" y="630"/>
      <point x="155" y="648"/>
      <point x="155" y="670" type="curve"/>
      <point x="155" y="692"/>
      <point x="137" y="710"/>
      <point x="115" y="710" type="curve" smooth="yes"/>
      <point x="93" y="710"/>
      <point x="75" y="692"/>
      <point x="75" y="670" type="curve" smooth="yes"/>
      <point x="75" y="648"/>
      <point x="93" y="630"/>
    </contour>
    <contour>
      <point x="237" y="630" type="curve" smooth="yes"/>
      <point x="259" y="630"/>
      <point x="277" y="648"/>
      <point x="277" y="670" type="curve" smooth="yes"/>
      <point x="277" y="692"/>
      <point x="259" y="710"/>
      <point x="237" y="710" type="curve" smooth="yes"/>
      <point x="215" y="710"/>
      <point x="197" y="692"/>
      <point x="197" y="670" type="curve" smooth="yes"/>
      <point x="197" y="648"/>
      <point x="215" y="630"/>
    </contour>
    <component base="idotless"/>
  </outline>
</glyph>
<glyph name="eth" format="2">
  <advance width="589"/>
  <unicode hex="00F0"/>
  <outline>
    <contour>
      <point x="251" y="-12" type="curve" smooth="yes"/>
      <point x="391" y="-12"/>
      <point x="508" y="94"/>
      <point x="534" y="248" type="curve"/>
      <point x="496" y="403" type="line"/>
      <point x="469" y="470"/>
      <point x="410" y="512"/>
      <point x="329" y="512" type="curve" smooth="yes"/>
      <point x="188" y="512"/>
      <point x="71" y="406"/>
      <point x="46" y="254" type="curve" smooth="yes"/>
      <point x="20" y="98"/>
      <point x="105" y="-12"/>
    </contour>
    <contour>
      <point x="252" y="43" type="curve" smooth="yes"/>
      <point x="145" y="43"/>
      <point x="84" y="126"/>
      <point x="104" y="246" type="curve" smooth="yes"/>
      <point x="125" y="370"/>
      <point x="218" y="457"/>
      <point x="328" y="457" type="curve" smooth="yes"/>
      <point x="434" y="457"/>
      <point x="495" y="374"/>
      <point x="475" y="254" type="curve" smooth="yes"/>
      <point x="454" y="130"/>
      <point x="361" y="43"/>
    </contour>
    <contour>
      <point x="534" y="248" type="line"/>
      <point x="578" y="514"/>
      <point x="491" y="684"/>
      <point x="249" y="737" type="curve"/>
      <point x="230" y="678" type="line"/>
      <point x="447" y="631"/>
      <point x="514" y="491"/>
      <point x="474" y="252" type="curve"/>
    </contour>
    <contour>
      <point x="339" y="535" type="line"/>
      <point x="531" y="645" type="line"/>
      <point x="512" y="687" type="line"/>
      <point x="318" y="578" type="line"/>
    </contour>
  </outline>
</glyph>
<glyph name="divide" format="2">
  <advance width="620"/>
  <unicode hex="00F7"/>
  <outline>
    <contour>
      <point x="123" y="269" type="line"/>
      <point x="503" y="269" type="line"/>
      <point x="513" y="326" type="line"/>
      <point x="133" y="326" type="line"/>
    </contour>
    <contour>
      <point x="290" y="109" type="curve" smooth="yes"/>
      <point x="310" y="109"/>
      <point x="329" y="125"/>
      <point x="332" y="145" type="curve" smooth="yes"/>
      <point x="336" y="169"/>
      <point x="320" y="189"/>
      <point x="296" y="189" type="curve" smooth="yes"/>
      <point x="276" y="189"/>
      <point x="257" y="173"/>
      <point x="254" y="153" type="curve" smooth="yes"/>
      <point x="250" y="129"/>
      <point x="266" y="109"/>
    </contour>
    <contour>
      <point x="340" y="406" type="curve" smooth="yes"/>
      <point x="360" y="406"/>
      <point x="379" y="422"/>
      <point x="382" y="442" type="curve" smooth="yes"/>
      <point x="386" y="466"/>
      <point x="370" y="486"/>
      <point x="346" y="486" type="curve" smooth="yes"/>
      <point x="326" y="486"/>
      <point x="307" y="470"/>
      <point x="303" y="450" type="curve" smooth="yes"/>
      <point x="299" y="426"/>
      <point x="316" y="406"/>
    </contour>
  </outline>
</glyph>
<glyph name="oslash" format="2">
  <advance width="585"/>
  <unicode hex="00F8"/>
  <anchor x="331" y="500" name="top"/>
  <outline>
    <contour>
      <point x="-10" y="0" type="line"/>
      <point x="71" y="0" type="line"/>
      <point x="595" y="500" type="line"/>
      <point x="513" y="500" type="line"/>
    </contour>
    <component base="o" xOffset="2"/>
  </outline>
</glyph>
<glyph name="thorn" format="2">
  <advance width="583"/>
  <unicode hex="00FE"/>
  <outline>
    <contour>
      <point x="0" y="-200" type="line"/>
      <point x="60" y="-200" type="line"/>
      <point x="210" y="700" type="line"/>
      <point x="150" y="700" type="line"/>
    </contour>
    <component base="Bowl" xScale="-1.0" yScale="-1.0" xOffset="582" yOffset="500"/>
  </outline>
</glyph>
<glyph name="dcroat" format="2">
  <advance width="582"/>
  <unicode hex="0111"/>
  <anchor x="552" y="700" name="top"/>
  <anchor x="583" y="700" name="top_caron"/>
  <outline>
    <contour>
      <point x="333" y="571" type="line"/>
      <point x="641" y="571" type="line"/>
      <point x="650" y="626" type="line"/>
      <point x="342" y="626" type="line"/>
    </contour>
    <component base="d"/>
  </outline>
</glyph>
<glyph name="Hbar" format="2">
  <advance width="752"/>
  <unicode hex="0126"/>
  <outline>
    <contour>
      <point x="47" y="500" type="line"/>
      <point x="789" y="500" type="line"/>
      <point x="799" y="558" type="line"/>
      <point x="57" y="558" type="line"/>
    </contour>
    <component base="H"/>
  </outline>
</glyph>
<glyph name="hbar" format="2">
  <advance width="554"/>
  <unicode hex="0127"/>
  <anchor x="235" y="0" name="bottom"/>
  <anchor x="302" y="400" name="center"/>
  <anchor x="181" y="700" name="top"/>
  <outline>
    <contour>
      <point x="54" y="571" type="line"/>
      <point x="362" y="571" type="line"/>
      <point x="371" y="626" type="line"/>
      <point x="63" y="626" type="line"/>
    </contour>
    <component base="h"/>
  </outline>
</glyph>
<glyph name="idotless" format="2">
  <advance width="221"/>
  <unicode hex="0131"/>
  <anchor x="68" y="0" name="bottom"/>
  <anchor x="97" y="0" name="ogonek"/>
  <anchor x="152" y="500" name="top"/>
  <outline>
    <contour>
      <point x="37" y="0" type="line"/>
      <point x="97" y="0" type="line"/>
      <point x="183" y="500" type="line"/>
      <point x="123" y="500" type="line"/>
    </contour>
  </outline>
</glyph>
<glyph name="Lslash" format="2">
  <advance width="513"/>
  <unicode hex="0141"/>
  <anchor x="242" y="0" name="bottom"/>
  <anchor x="274" y="350" name="center"/>
  <anchor x="202" y="670" name="top"/>
  <anchor x="289" y="759" name="top_caron"/>
  <anchor x="568" y="700" name="topright"/>
  <outline>
    <contour>
      <point x="7" y="266" type="line"/>
      <point x="306" y="390" type="line"/>
      <point x="315" y="448" type="line"/>
      <point x="16" y="324" type="line"/>
    </contour>
    <component base="L"/>
  </outline>
</glyph>
<glyph name="lslash" format="2">
  <advance width="280"/>
  <unicode hex="0142"/>
  <anchor x="97" y="0" name="bottom"/>
  <anchor x="211" y="670" name="top"/>
  <anchor x="248" y="700" name="top_caron"/>
  <outline>
    <contour>
      <point x="24" y="269" type="line"/>
      <point x="283" y="384" type="line"/>
      <point x="292" y="442" type="line"/>
      <point x="33" y="327" type="line"/>
    </contour>
    <component base="l" xOffset="34"/>
  </outline>
</glyph>
<glyph name="Eng" format="2">
  <advance width="774"/>
  <unicode hex="014A"/>
  <anchor x="644" y="503" name="top"/>
  <anchor x="345" y="0" name="bottom"/>
  <outline>
    <contour>
      <point x="460" y="-212" type="curve" smooth="yes"/>
      <point x="553" y="-212"/>
      <point x="605" y="-164"/>
      <point x="622" y="-62" type="curve" smooth="yes"/>
      <point x="716" y="503" type="line"/>
      <point x="656" y="503" type="line"/>
      <point x="562" y="-58" type="line" smooth="yes"/>
      <point x="551" y="-123"/>
      <point x="519" y="-157"/>
      <point x="466" y="-157" type="curve" smooth="yes"/>
      <point x="454" y="-157"/>
      <point x="432" y="-151"/>
      <point x="399" y="-138" type="curve"/>
      <point x="372" y="-187" type="line"/>
      <point x="409" y="-203"/>
      <point x="437" y="-212"/>
    </contour>
    <component base="N"/>
  </outline>
</glyph>
<glyph name="eng" format="2">
  <advance width="554"/>
  <unicode hex="014B"/>
  <anchor x="464" y="500" name="top"/>
  <anchor x="243" y="0" name="bottom"/>
  <outline>
    <contour>
      <point x="280" y="-212" type="curve" smooth="yes"/>
      <point x="373" y="-212"/>
      <point x="424" y="-165"/>
      <point x="441" y="-65" type="curve" smooth="yes"/>
      <point x="452" y="0" type="line"/>
      <point x="392" y="0" type="line"/>
      <point x="382" y="-61" type="line" smooth="yes"/>
      <point x="372" y="-123"/>
      <point x="339" y="-157"/>
      <point x="286" y="-157" type="curve" smooth="yes"/>
      <point x="274" y="-157"/>
      <point x="253" y="-151"/>
      <point x="220" y="-138" type="curve"/>
      <point x="193" y="-187" type="line"/>
      <point x="229" y="-203"/>
      <point x="257" y="-212"/>
    </contour>
    <component base="n"/>
  </outline>
</glyph>
<glyph name="OE" format="2">
  <advance width="1140"/>
  <unicode hex="0152"/>
  <anchor x="344" y="0" name="bottom"/>
  <anchor x="403" y="350" name="center"/>
  <anchor x="655" y="10" name="ogonek"/>
  <anchor x="456" y="670" name="top"/>
  <anchor x="95" y="700" name="topleft"/>
  <anchor x="827" y="700" name="topright"/>
  <outline>
    <contour>
      <point x="348" y="-12" type="curve" smooth="yes"/>
      <point x="529" y="-12"/>
      <point x="680" y="116"/>
      <point x="718" y="346" type="curve" smooth="yes"/>
      <point x="757" y="580"/>
      <point x="648" y="712"/>
      <point x="460" y="712" type="curve" smooth="yes"/>
      <point x="264" y="712"/>
      <point x="100" y="564"/>
      <point x="67" y="354" type="curve" smooth="yes"/>
      <point x="31" y="131"/>
      <point x="142" y="-12"/>
    </contour>
    <contour>
      <point x="350" y="46" type="curve" smooth="yes"/>
      <point x="185" y="46"/>
      <point x="99" y="164"/>
      <point x="130" y="346" type="curve" smooth="yes"/>
      <point x="160" y="526"/>
      <point x="297" y="654"/>
      <point x="458" y="654" type="curve" smooth="yes"/>
      <point x="609" y="654"/>
      <point x="698" y="549"/>
      <point x="665" y="354" type="curve" smooth="yes"/>
      <point x="632" y="154"/>
      <point x="504" y="46"/>
    </contour>
    <component base="E" xOffset="547"/>
  </outline>
</glyph>
<glyph name="jdotless" format="2">
  <advance width="248"/>
  <unicode hex="0237"/>
  <anchor x="190" y="500" name="top"/>
  <outline>
    <contour>
      <point x="-37" y="-215" type="curve" smooth="yes"/>
      <point x="56" y="-215"/>
      <point x="108" y="-167"/>
      <point x="125" y="-65" type="curve" smooth="yes"/>
      <point x="220" y="500" type="line"/>
      <point x="160" y="500" type="line"/>
      <point x="66" y="-61" type="line" smooth="yes"/>
      <point x="55" y="-126"/>
      <point x="22" y="-160"/>
      <point x="-31" y="-160" type="curve" smooth="yes"/>
      <point x="-43" y="-160"/>
      <point x="-64" y="-154"/>
      <point x="-97" y="-141" type="curve"/>
      <point x="-124" y="-190" type="line"/>
      <point x="-88" y="-206"/>
      <point x="-60" y="-215"/>
    </contour>
  </outline>
</glyph>
<glyph name="gravecomb" format="2">
  <unicode hex="0300"/>
  <anchor x="291" y="500" name="_top"/>
  <anchor x="291" y="500" name="top"/>
  <outline>
    <contour>
      <point x="331" y="574" type="line"/>
      <point x="405" y="574" type="line"/>
      <point x="306" y="701" type="line"/>
      <point x="222" y="701" type="line"/>
    </contour>
  </outline>
</glyph>
<glyph name="circumflexcomb" format="2">
  <unicode hex="0302"/>
  <anchor x="206" y="500" name="_top"/>
  <outline>
    <contour>
      <point x="56" y="586" type="line"/>
      <point x="141" y="586" type="line"/>
      <point x="278" y="711" type="line"/>
      <point x="278" y="712" type="line"/>
      <point x="197" y="712" type="line"/>
    </contour>
    <contour>
      <point x="306" y="586" type="line"/>
      <point x="378" y="586" type="line"/>
      <point x="279" y="712" type="line"/>
      <point x="209" y="712" type="line"/>
      <point x="207" y="712" type="line"/>
    </contour>
  </outline>
</glyph>
<glyph name="tildecomb" format="2">
  <unicode hex="0303"/>
  <anchor x="172" y="500" name="_top"/>
  <anchor x="209" y="723" name="top"/>
  <outline>
    <contour>
      <point x="270" y="572" type="curve" smooth="yes"/>
      <point x="332" y="572"/>
      <point x="361" y="620"/>
      <point x="374" y="666" type="curve"/>
      <point x="320" y="666" type="line"/>
      <point x="312" y="641"/>
      <point x="298" y="628"/>
      <point x="273" y="628" type="curve" smooth="yes"/>
      <point x="238" y="628"/>
      <point x="236" y="700"/>
      <point x="169" y="700" type="curve" smooth="yes"/>
      <point x="104" y="700"/>
      <point x="67" y="652"/>
      <point x="61" y="607" type="curve"/>
      <point x="115" y="607" type="line"/>
      <point x="124" y="632"/>
      <point x="138" y="644"/>
      <point x="162" y="644" type="curve" smooth="yes"/>
      <point x="199" y="644"/>
      <point x="202" y="572"/>
    </contour>
  </outline>
</glyph>
<glyph name="brevecomb" format="2">
  <unicode hex="0306"/>
  <anchor x="204" y="500" name="_top"/>
  <outline>
    <contour>
      <point x="219" y="569" type="curve" smooth="yes"/>
      <point x="312" y="569"/>
      <point x="386" y="622"/>
      <point x="399" y="700" type="curve"/>
      <point x="337" y="700" type="line"/>
      <point x="329" y="656"/>
      <point x="281" y="623"/>
      <point x="220" y="623" type="curve" smooth="yes"/>
      <point x="164" y="623"/>
      <point x="129" y="654"/>
      <point x="136" y="700" type="curve"/>
      <point x="75" y="700" type="line"/>
      <point x="62" y="624"/>
      <point x="122" y="569"/>
    </contour>
  </outline>
</glyph>
<glyph name="dotaccentcomb" format="2">
  <unicode hex="0307"/>
  <anchor x="82" y="500" name="_top"/>
  <outline>
    <contour>
      <point x="111" y="630" type="curve" smooth="yes"/>
      <point x="133" y="630"/>
      <point x="151" y="648"/>
      <point x="151" y="670" type="curve" smooth="yes"/>
      <point x="151" y="692"/>
      <point x="133" y="710"/>
      <point x="111" y="710" type="curve" smooth="yes"/>
      <point x="89" y="710"/>
      <point x="71" y="692"/>
      <point x="71" y="670" type="curve" smooth="yes"/>
      <point x="71" y="648"/>
      <point x="89" y="630"/>
    </contour>
  </outline>
</glyph>
<glyph name="dieresiscomb" format="2">
  <unicode hex="0308"/>
  <anchor x="177" y="500" name="_top"/>
  <anchor x="212" y="710" name="top"/>
  <outline>
    <contour>
      <point x="84" y="630" type="curve" smooth="yes"/>
      <point x="106" y="630"/>
      <point x="124" y="648"/>
      <point x="124" y="670" type="curve" smooth="yes"/>
      <point x="124" y="692"/>
      <point x="106" y="710"/>
      <point x="84" y="710" type="curve" smooth="yes"/>
      <point x="62" y="710"/>
      <point x="44" y="692"/>
      <point x="44" y="670" type="curve" smooth="yes"/>
      <point x="44" y="648"/>
      <point x="62" y="630"/>
    </contour>
    <contour>
      <point x="326" y="630" type="curve" smooth="yes"/>
      <point x="348" y="630"/>
      <point x="366" y="648"/>
      <point x="366" y="670" type="curve" smooth="yes"/>
      <point x="366" y="692"/>
      <point x="348" y="710"/>
      <point x="326" y="710" type="curve" smooth="yes"/>
      <point x="304" y="710"/>
      <point x="286" y="692"/>
      <point x="286" y="670" type="curve" smooth="yes"/>
      <point x="286" y="648"/>
      <point x="304" y="630"/>
    </contour>
  </outline>
</glyph>
<glyph name="ringcomb" format="2">
  <unicode hex="030A"/>
  <anchor x="180" y="500" name="_top"/>
  <outline>
    <contour>
      <point x="193" y="564" type="curve" smooth="yes"/>
      <point x="251" y="564"/>
      <point x="292" y="604"/>
      <point x="292" y="660" type="curve" smooth="yes"/>
      <point x="292" y="702"/>
      <point x="261" y="735"/>
      <point x="217" y="735" type="curve" smooth="yes"/>
      <point x="156" y="735"/>
      <point x="116" y="690"/>
      <point x="116" y="639" type="curve" smooth="yes"/>
      <point x="116" y="597"/>
      <point x="148" y="564"/>
    </contour>
    <contour>
      <point x="197" y="610" type="curve" smooth="yes"/>
      <point x="178" y="610"/>
      <point x="166" y="621"/>
      <point x="166" y="639" type="curve" smooth="yes"/>
      <point x="166" y="669"/>
      <point x="185" y="689"/>
      <point x="213" y="689" type="curve" smooth="yes"/>
      <point x="232" y="689"/>
      <point x="243" y="679"/>
      <point x="243" y="662" type="curve" smooth="yes"/>
      <point x="243" y="629"/>
      <point x="224" y="610"/>
    </contour>
  </outline>
</glyph>
<glyph name="hungarumlautcomb" format="2">
  <unicode hex="030B"/>
  <anchor x="185" y="500" name="_top"/>
  <outline>
    <contour>
      <point x="224" y="574" type="line"/>
      <point x="306" y="574" type="line"/>
      <point x="435" y="700" type="line"/>
      <point x="345" y="700" type="line"/>
    </contour>
    <contour>
      <point x="54" y="574" type="line"/>
      <point x="136" y="574" type="line"/>
      <point x="265" y="700" type="line"/>
      <point x="175" y="700" type="line"/>
    </contour>
  </outline>
</glyph>
<glyph name="caroncomb" format="2">
  <unicode hex="030C"/>
  <anchor x="204" y="500" name="_top"/>
  <outline>
    <contour>
      <point x="175" y="574" type="line"/>
      <point x="256" y="574" type="line"/>
      <point x="397" y="700" type="line"/>
      <point x="312" y="700" type="line"/>
      <point x="175" y="575" type="line"/>
    </contour>
    <contour>
      <point x="174" y="574" type="line"/>
      <point x="244" y="574" type="line"/>
      <point x="246" y="574" type="line"/>
      <point x="147" y="700" type="line"/>
      <point x="75" y="700" type="line"/>
    </contour>
  </outline>
</glyph>
<glyph name="commaaccentcomb" format="2">
  <unicode hex="0326"/>
  <anchor x="36" y="0" name="_bottom"/>
  <outline>
    <contour>
      <point x="-75" y="-200" type="line"/>
      <point x="-18" y="-200" type="line"/>
      <point x="66" y="-64" type="line"/>
      <point x="-6" y="-64" type="line"/>
    </contour>
  </outline>
</glyph>
<glyph name="cedillacomb" format="2">
  <unicode hex="0327"/>
  <anchor x="94" y="0" name="_bottom"/>
  <outline>
    <contour>
      <point x="38" y="-210" type="curve" smooth="yes"/>
      <point x="102" y="-210"/>
      <point x="140" y="-177"/>
      <point x="140" y="-108" type="curve" smooth="yes"/>
      <point x="140" y="-78"/>
      <point x="118" y="-46"/>
      <point x="86" y="-34" type="curve"/>
      <point x="103" y="-8" type="line"/>
      <point x="56" y="7" type="line"/>
      <point x="12" y="-62" type="line"/>
      <point x="61" y="-70"/>
      <point x="91" y="-82"/>
      <point x="91" y="-113" type="curve" smooth="yes"/>
      <point x="91" y="-147"/>
      <point x="64" y="-164"/>
      <point x="30" y="-164" type="curve" smooth="yes"/>
      <point x="6" y="-164"/>
      <point x="-22" y="-150"/>
      <point x="-44" y="-136" type="curve"/>
      <point x="-71" y="-175" type="line"/>
      <point x="-23" y="-205"/>
      <point x="8" y="-210"/>
    </contour>
  </outline>
</glyph>
<glyph name="ogonekcomb" format="2">
  <unicode hex="0328"/>
  <anchor x="156" y="0" name="_ogonek"/>
  <outline>
    <contour>
      <point x="73" y="-212" type="curve" smooth="yes"/>
      <point x="97" y="-212"/>
      <point x="121" y="-205"/>
      <point x="140" y="-193" type="curve"/>
      <point x="125" y="-145" type="line"/>
      <point x="119" y="-148"/>
      <point x="95" y="-157"/>
      <point x="68" y="-157" type="curve" smooth="yes"/>
      <point x="45" y="-157"/>
      <point x="34" y="-147"/>
      <point x="37" y="-128" type="curve" smooth="yes"/>
      <point x="45" y="-76"/>
      <point x="103" y="-35"/>
      <point x="156" y="0" type="curve"/>
      <point x="105" y="13" type="line"/>
      <point x="43" y="-27"/>
      <point x="-14" y="-72"/>
      <point x="-22" y="-120" type="curve" smooth="yes"/>
      <point x="-32" y="-180"/>
      <point x="4" y="-212"/>
    </contour>
  </outline>
</glyph>
<glyph name="Germandbls" format="2">
  <advance width="559"/>
  <unicode hex="1E9E"/>
  <outline>
    <contour>
      <point x="58" y="0" type="line"/>
      <point x="122" y="0" type="line"/>
      <point x="211" y="528" type="line" smooth="yes"/>
      <point x="223" y="605"/>
      <point x="275" y="654"/>
      <point x="362" y="654" type="curve" smooth="yes"/>
      <point x="468" y="654"/>
      <point x="491" y="594"/>
      <point x="514" y="547" type="curve"/>
      <point x="566" y="594" type="line"/>
      <point x="545" y="636"/>
      <point x="502" y="712"/>
      <point x="368" y="712" type="curve" smooth="yes"/>
      <point x="239" y="712"/>
      <point x="167" y="651"/>
      <point x="149" y="542" type="curve" smooth="yes"/>
    </contour>
    <contour>
      <point x="269" y="-12" type="curve" smooth="yes"/>
      <point x="398" y="-12"/>
      <point x="477" y="58"/>
      <point x="497" y="179" type="curve" smooth="yes"/>
      <point x="518" y="303"/>
      <point x="452" y="377"/>
      <point x="323" y="377" type="curve" smooth="yes"/>
      <point x="264" y="377" type="line"/>
      <point x="255" y="319" type="line"/>
      <point x="318" y="319" type="line" smooth="yes"/>
      <point x="406" y="319"/>
      <point x="448" y="270"/>
      <point x="434" y="187" type="curve" smooth="yes"/>
      <point x="420" y="99"/>
      <point x="367" y="46"/>
      <point x="279" y="46" type="curve" smooth="yes"/>
      <point x="236" y="46"/>
      <point x="218" y="71"/>
      <point x="210" y="79" type="curve"/>
      <point x="161" y="41" type="line"/>
      <point x="193" y="0"/>
      <point x="242" y="-12"/>
    </contour>
    <contour>
      <point x="258" y="340" type="line"/>
      <point x="302" y="340" type="line"/>
      <point x="565" y="595" type="line"/>
      <point x="527" y="636" type="line"/>
      <point x="264" y="382" type="line"/>
    </contour>
  </outline>
</glyph>
<glyph name="endash" format="2">
  <advance width="550"/>
  <unicode hex="2013"/>
  <outline>
    <contour>
      <point x="3" y="269" type="line"/>
      <point x="553" y="269" type="line"/>
      <point x="563" y="326" type="line"/>
      <point x="13" y="326" type="line"/>
    </contour>
  </outline>
</glyph>
<glyph name="emdash" format="2">
  <advance width="1100"/>
  <unicode hex="2014"/>
  <outline>
    <contour>
      <point x="3" y="269" type="line"/>
      <point x="1103" y="269" type="line"/>
      <point x="1113" y="326" type="line"/>
      <point x="13" y="326" type="line"/>
    </contour>
  </outline>
</glyph>
<glyph name="dagger" format="2">
  <advance width="478"/>
  <unicode hex="2020"/>
  <outline>
    <contour>
      <point x="166" y="0" type="line"/>
      <point x="228" y="0" type="line"/>
      <point x="302" y="472" type="line"/>
      <point x="345" y="700" type="line"/>
      <point x="283" y="700" type="line"/>
      <point x="250" y="472" type="line"/>
    </contour>
    <contour>
      <point x="57" y="446" type="line"/>
      <point x="273" y="451" type="line"/>
      <point x="486" y="446" type="line"/>
      <point x="495" y="502" type="line"/>
      <point x="280" y="497" type="line"/>
      <point x="66" y="502" type="line"/>
    </contour>
  </outline>
</glyph>
<glyph name="daggerdbl" format="2">
  <advance width="478"/>
  <unicode hex="2021"/>
  <outline>
    <contour>
      <point x="133" y="-200" type="line"/>
      <point x="195" y="-200" type="line"/>
      <point x="227" y="24" type="line"/>
      <point x="270" y="250" type="line"/>
      <point x="302" y="472" type="line"/>
      <point x="345" y="700" type="line"/>
      <point x="283" y="700" type="line"/>
      <point x="250" y="472" type="line"/>
      <point x="208" y="250" type="line"/>
      <point x="175" y="24" type="line"/>
    </contour>
    <contour>
      <point x="-17" y="-3" type="line"/>
      <point x="198" y="2" type="line"/>
      <point x="411" y="-3" type="line"/>
      <point x="420" y="53" type="line"/>
      <point x="206" y="48" type="line"/>
      <point x="-8" y="53" type="line"/>
    </contour>
    <contour>
      <point x="58" y="446" type="line"/>
      <point x="273" y="451" type="line"/>
      <point x="486" y="446" type="line"/>
      <point x="495" y="502" type="line"/>
      <point x="280" y="497" type="line"/>
      <point x="67" y="502" type="line"/>
    </contour>
  </outline>
</glyph>
<glyph name="bullet" format="2">
  <advance width="497"/>
  <unicode hex="2022"/>
  <outline>
    <contour>
      <point x="241" y="183" type="curve" smooth="yes"/>
      <point x="292" y="183"/>
      <point x="343" y="227"/>
      <point x="352" y="278" type="curve" smooth="yes"/>
      <point x="361" y="334"/>
      <point x="321" y="380"/>
      <point x="266" y="380" type="curve" smooth="yes"/>
      <point x="214" y="380"/>
      <point x="165" y="338"/>
      <point x="156" y="286" type="curve" smooth="yes"/>
      <point x="147" y="231"/>
      <point x="185" y="183"/>
    </contour>
  </outline>
</glyph>
<glyph name="guilsinglleft" format="2">
  <advance width="345"/>
  <unicode hex="2039"/>
  <outline>
    <contour>
      <point x="58" y="298" type="line"/>
      <point x="136" y="298" type="line"/>
      <point x="327" y="500" type="line"/>
      <point x="249" y="500" type="line"/>
    </contour>
    <contour>
      <point x="183" y="96" type="line"/>
      <point x="257" y="96" type="line"/>
      <point x="134" y="298" type="line"/>
      <point x="60" y="298" type="line"/>
    </contour>
  </outline>
</glyph>
<glyph name="fraction" format="2">
  <advance width="216"/>
  <unicode hex="2044"/>
  <outline>
    <contour>
      <point x="-170" y="0" type="line"/>
      <point x="-95" y="0" type="line"/>
      <point x="386" y="700" type="line"/>
      <point x="311" y="700" type="line"/>
    </contour>
  </outline>
</glyph>
<glyph name="euro" format="2">
  <advance width="650"/>
  <unicode hex="20AC"/>
  <outline>
    <contour>
      <point x="335" y="-12" type="curve" smooth="yes"/>
      <point x="428" y="-12"/>
      <point x="536" y="61"/>
      <point x="596" y="168" type="curve"/>
      <point x="546" y="205" type="line"/>
      <point x="499" y="113"/>
      <point x="412" y="46"/>
      <point x="337" y="46" type="curve" smooth="yes"/>
      <point x="215" y="46"/>
      <point x="151" y="169"/>
      <point x="181" y="346" type="curve" smooth="yes"/>
      <point x="211" y="526"/>
      <point x="321" y="654"/>
      <point x="444" y="654" type="curve" smooth="yes"/>
      <point x="514" y="654"/>
      <point x="579" y="596"/>
      <point x="596" y="511" type="curve"/>
      <point x="654" y="540" type="line"/>
      <point x="629" y="640"/>
      <point x="543" y="712"/>
      <point x="445" y="712" type="curve" smooth="yes"/>
      <point x="288" y="712"/>
      <point x="154" y="564"/>
      <point x="118" y="354" type="curve" smooth="yes"/>
      <point x="83" y="140"/>
      <point x="172" y="-12"/>
    </contour>
    <contour>
      <point x="21" y="258" type="line"/>
      <point x="450" y="258" type="line"/>
      <point x="459" y="310" type="line"/>
      <point x="30" y="310" type="line"/>
    </contour>
    <contour>
      <point x="43" y="390" type="line"/>
      <point x="472" y="390" type="line"/>
      <point x="481" y="442" type="line"/>
      <point x="52" y="442" type="line"/>
    </contour>
  </outline>
</glyph>
<glyph name="trademark" format="2">
  <advance width="848"/>
  <unicode hex="2122"/>
  <outline>
    <contour>
      <point x="73" y="643" type="line"/>
      <point x="397" y="643" type="line"/>
      <point x="406" y="700" type="line"/>
      <point x="82" y="700" type="line"/>
    </contour>
    <contour>
      <point x="143" y="280" type="line"/>
      <point x="205" y="280" type="line"/>
      <point x="269" y="665" type="line"/>
      <point x="207" y="665" type="line"/>
    </contour>
    <contour>
      <point x="395" y="280" type="line"/>
      <point x="458" y="280" type="line"/>
      <point x="528" y="700" type="line"/>
      <point x="465" y="700" type="line"/>
    </contour>
    <contour>
      <point x="618" y="392" type="line"/>
      <point x="659" y="452" type="line"/>
      <point x="531" y="700" type="line"/>
      <point x="498" y="692" type="line"/>
      <point x="470" y="681" type="line"/>
    </contour>
    <contour>
      <point x="618" y="392" type="line"/>
      <point x="863" y="682" type="line"/>
      <point x="837" y="692" type="line"/>
      <point x="804" y="700" type="line"/>
      <point x="597" y="452" type="line"/>
    </contour>
    <contour>
      <point x="739" y="280" type="line"/>
      <point x="801" y="280" type="line"/>
      <point x="871" y="700" type="line"/>
      <point x="809" y="700" type="line"/>
    </contour>
  </outline>
</glyph>
<glyph name="upArrow" format="2">
  <advance width="687"/>
  <unicode hex="2191"/>
  <outline>
    <contour>
      <point x="155" y="370" type="line"/>
      <point x="439" y="652" type="line"/>
      <point x="420" y="712" type="line"/>
      <point x="116" y="404" type="line"/>
    </contour>
    <contour>
      <point x="574" y="370" type="line"/>
      <point x="623" y="404" type="line"/>
      <point x="420" y="712" type="line"/>
      <point x="382" y="652" type="line"/>
    </contour>
    <contour>
      <point x="273" y="0" type="line"/>
      <point x="330" y="0" type="line"/>
      <point x="439" y="652" type="line"/>
      <point x="382" y="652" type="line"/>
    </contour>
  </outline>
</glyph>
<glyph name="rightArrow" format="2">
  <advance width="740"/>
  <unicode hex="2192"/>
  <outline>
    <contour>
      <point x="624" y="269" type="line"/>
      <point x="688" y="297" type="line"/>
      <point x="421" y="551" type="line"/>
      <point x="381" y="507" type="line"/>
    </contour>
    <contour>
      <point x="339" y="44" type="line"/>
      <point x="688" y="297" type="line"/>
      <point x="632" y="326" type="line"/>
      <point x="311" y="88" type="line"/>
    </contour>
    <contour>
      <point x="73" y="269" type="line"/>
      <point x="623" y="269" type="line"/>
      <point x="633" y="326" type="line"/>
      <point x="83" y="326" type="line"/>
    </contour>
  </outline>
</glyph>
<glyph name="northWestArrow" format="2">
  <advance width="724"/>
  <unicode hex="2196"/>
  <outline>
    <contour>
      <point x="573" y="177" type="line"/>
      <point x="618" y="217" type="line"/>
      <point x="233" y="678" type="line"/>
      <point x="188" y="638" type="line"/>
    </contour>
    <contour>
      <point x="560" y="640" type="line"/>
      <point x="570" y="700" type="line"/>
      <point x="176" y="700" type="line"/>
      <point x="194" y="640" type="line"/>
    </contour>
    <contour>
      <point x="169" y="305" type="line"/>
      <point x="230" y="673" type="line"/>
      <point x="175" y="700" type="line"/>
      <point x="109" y="305" type="line"/>
    </contour>
  </outline>
</glyph>
<glyph name="northEastArrow" format="2">
  <advance width="724"/>
  <unicode hex="2197"/>
  <outline>
    <contour>
      <point x="129" y="177" type="line"/>
      <point x="666" y="638" type="line"/>
      <point x="631" y="678" type="line"/>
      <point x="94" y="217" type="line"/>
    </contour>
    <contour>
      <point x="294" y="640" type="line"/>
      <point x="662" y="640" type="line"/>
      <point x="699" y="700" type="line"/>
      <point x="304" y="700" type="line"/>
    </contour>
    <contour>
      <point x="573" y="305" type="line"/>
      <point x="633" y="305" type="line"/>
      <point x="699" y="700" type="line"/>
      <point x="634" y="673" type="line"/>
    </contour>
  </outline>
</glyph>
<glyph name="southEastArrow" format="2">
  <advance width="723"/>
  <unicode hex="2198"/>
  <outline>
    <contour>
      <point x="139" y="484" type="line"/>
      <point x="524" y="23" type="line"/>
      <point x="570" y="63" type="line"/>
      <point x="184" y="524" type="line"/>
    </contour>
    <contour>
      <point x="587" y="395" type="line"/>
      <point x="526" y="28" type="line"/>
      <point x="580" y="0" type="line"/>
      <point x="647" y="395" type="line"/>
    </contour>
    <contour>
      <point x="196" y="60" type="line"/>
      <point x="186" y="0" type="line"/>
      <point x="580" y="0" type="line"/>
      <point x="564" y="60" type="line"/>
    </contour>
  </outline>
</glyph>
<glyph name="southWestArrow" format="2">
  <advance width="724"/>
  <unicode hex="2199"/>
  <outline>
    <contour>
      <point x="126" y="22" type="line"/>
      <point x="663" y="483" type="line"/>
      <point x="628" y="523" type="line"/>
      <point x="91" y="62" type="line"/>
    </contour>
    <contour>
      <point x="58" y="0" type="line"/>
      <point x="123" y="27" type="line"/>
      <point x="184" y="395" type="line"/>
      <point x="124" y="395" type="line"/>
    </contour>
    <contour>
      <point x="58" y="0" type="line"/>
      <point x="453" y="0" type="line"/>
      <point x="463" y="60" type="line"/>
      <point x="95" y="60" type="line"/>
    </contour>
  </outline>
</glyph>
<glyph name="minus" format="2">
  <advance width="620"/>
  <unicode hex="2212"/>
  <outline>
    <contour>
      <point x="123" y="269" type="line"/>
      <point x="503" y="269" type="line"/>
      <point x="513" y="326" type="line"/>
      <point x="133" y="326" type="line"/>
    </contour>
  </outline>
</glyph>
<glyph name="divisionslash" format="2">
  <advance width="620"/>
  <unicode hex="2215"/>
  <outline>
    <contour>
      <point x="-8" y="0" type="line"/>
      <point x="62" y="0" type="line"/>
      <point x="661" y="700" type="line"/>
      <point x="592" y="700" type="line"/>
    </contour>
  </outline>
</glyph>
<glyph name="notequal" format="2">
  <advance width="620"/>
  <unicode hex="2260"/>
  <outline>
    <contour>
      <point x="139" y="70" type="line"/>
      <point x="205" y="70" type="line"/>
      <point x="536" y="582" type="line"/>
      <point x="471" y="582" type="line"/>
    </contour>
    <component base="equal" xOffset="5" yOffset="30"/>
  </outline>
</glyph>
<glyph name="lessequal" format="2">
  <advance width="620"/>
  <unicode hex="2264"/>
  <outline>
    <contour>
      <point x="97" y="0" type="line"/>
      <point x="428" y="0" type="line"/>
      <point x="437" y="51" type="line"/>
      <point x="106" y="51" type="line"/>
    </contour>
    <component base="greater" xScale="-1.0" yScale="-1.0" xOffset="636" yOffset="596"/>
  </outline>
</glyph>
<glyph name="greaterequal" format="2">
  <advance width="620"/>
  <unicode hex="2265"/>
  <outline>
    <contour>
      <point x="108" y="0" type="line"/>
      <point x="439" y="0" type="line"/>
      <point x="448" y="51" type="line"/>
      <point x="117" y="51" type="line"/>
    </contour>
    <component base="greater"/>
  </outline>
</glyph>
<glyph name="Bowl" format="2">
  <advance width="582"/>
  <outline>
    <contour>
      <point x="231" y="-12" type="curve" smooth="yes"/>
      <point x="356" y="-12"/>
      <point x="491" y="95"/>
      <point x="491" y="308" type="curve" smooth="yes"/>
      <point x="491" y="430"/>
      <point x="422" y="512"/>
      <point x="311" y="512" type="curve" smooth="yes"/>
      <point x="149" y="512"/>
      <point x="40" y="353"/>
      <point x="40" y="196" type="curve" smooth="yes"/>
      <point x="40" y="74"/>
      <point x="119" y="-12"/>
    </contour>
    <contour>
      <point x="244" y="42" type="curve" smooth="yes"/>
      <point x="156" y="42"/>
      <point x="100" y="107"/>
      <point x="100" y="200" type="curve" smooth="yes"/>
      <point x="100" y="325"/>
      <point x="188" y="458"/>
      <point x="321" y="458" type="curve" smooth="yes"/>
      <point x="402" y="458"/>
      <point x="452" y="396"/>
      <point x="452" y="303" type="curve" smooth="yes"/>
      <point x="452" y="181"/>
      <point x="374" y="42"/>
    </contour>
  </outline>
</glyph>
<glyph name="I.ss02" format="2">
  <advance width="364"/>
  <anchor x="182" y="0" name="bottom"/>
  <anchor x="214" y="0" name="ogonek"/>
  <anchor x="253" y="670" name="top"/>
  <anchor x="126" y="700" name="topleft"/>
  <outline>
    <contour>
      <point x="8" y="0" type="line"/>
      <point x="272" y="0" type="line"/>
      <point x="282" y="58" type="line"/>
      <point x="182" y="58" type="line"/>
      <point x="280" y="642" type="line"/>
      <point x="380" y="642" type="line"/>
      <point x="389" y="700" type="line"/>
      <point x="125" y="700" type="line"/>
      <point x="116" y="642" type="line"/>
      <point x="216" y="642" type="line"/>
      <point x="118" y="58" type="line"/>
      <point x="18" y="58" type="line"/>
    </contour>
  </outline>
</glyph>
<glyph name="Idieresis.ss02" format="2">
  <advance width="364"/>
  <anchor x="182" y="670" name="_top"/>
  <anchor x="182" y="880" name="top"/>
  <anchor x="182" y="0" name="bottom"/>
  <anchor x="214" y="0" name="ogonek"/>
  <anchor x="126" y="700" name="topleft"/>
  <outline>
    <contour>
      <point x="342" y="800" type="curve" smooth="yes"/>
      <point x="364" y="800"/>
      <point x="382" y="818"/>
      <point x="382" y="840" type="curve" smooth="yes"/>
      <point x="382" y="862"/>
      <point x="364" y="880"/>
      <point x="342" y="880" type="curve" smooth="yes"/>
      <point x="320" y="880"/>
      <point x="302" y="862"/>
      <point x="302" y="840" type="curve" smooth="yes"/>
      <point x="302" y="818"/>
      <point x="320" y="800"/>
    </contour>
    <contour>
      <point x="221" y="800" type="curve" smooth="yes"/>
      <point x="243" y="800"/>
      <point x="261" y="818"/>
      <point x="261" y="840" type="curve" smooth="yes"/>
      <point x="261" y="862"/>
      <point x="243" y="880"/>
      <point x="221" y="880" type="curve" smooth="yes"/>
      <point x="199" y="880"/>
      <point x="181" y="862"/>
      <point x="181" y="840" type="curve" smooth="yes"/>
      <point x="181" y="818"/>
      <point x="199" y="800"/>
    </contour>
    <component base="I.ss02"/>
  </outline>
</glyph>
<glyph name="arch" format="2">
  <advance width="398"/>
  <outline>
    <contour>
      <point x="339" y="258" type="curve"/>
      <point x="400" y="258" type="line"/>
      <point x="404" y="284" type="line"/>
      <point x="430" y="436"/>
      <point x="361" y="512"/>
      <point x="239" y="512" type="curve" smooth="yes"/>
      <point x="112" y="512"/>
      <point x="29" y="419"/>
      <point x="2" y="259" type="curve"/>
      <point x="39" y="255" type="line"/>
      <point x="60" y="380"/>
      <point x="130" y="456"/>
      <point x="227" y="456" type="curve" smooth="yes"/>
      <point x="308" y="456"/>
      <point x="367" y="424"/>
    </contour>
  </outline>
</glyph>
<glyph name="caroncomb.alt" format="2">
  <anchor x="52" y="700" name="_top_caron"/>
  <outline>
    <contour>
      <point x="46" y="527" type="line"/>
      <point x="103" y="527" type="line"/>
      <point x="202" y="699" type="line"/>
      <point x="130" y="699" type="line"/>
    </contour>
  </outline>
</glyph>
<glyph name="eight.numr" format="2">
  <advance width="392"/>
  <outline>
    <contour>
      <point x="204" y="273" type="curve" smooth="yes"/>
      <point x="299" y="273"/>
      <point x="362" y="320"/>
      <point x="373" y="386" type="curve" smooth="yes"/>
      <point x="385" y="456"/>
      <point x="337" y="513"/>
      <point x="236" y="513" type="curve" smooth="yes"/>
      <point x="143" y="513"/>
      <point x="78" y="464"/>
      <point x="66" y="393" type="curve" smooth="yes"/>
      <point x="54" y="322"/>
      <point x="108" y="273"/>
    </contour>
    <contour>
      <point x="205" y="326" type="curve" smooth="yes"/>
      <point x="154" y="326"/>
      <point x="123" y="353"/>
      <point x="130" y="393" type="curve" smooth="yes"/>
      <point x="137" y="438"/>
      <point x="183" y="469"/>
      <point x="237" y="469" type="curve" smooth="yes"/>
      <point x="287" y="469"/>
      <point x="319" y="441"/>
      <point x="312" y="401" type="curve" smooth="yes"/>
      <point x="305" y="357"/>
      <point x="260" y="326"/>
    </contour>
    <contour>
      <point x="237" y="523" type="curve" smooth="yes"/>
      <point x="197" y="523"/>
      <point x="168" y="547"/>
      <point x="174" y="580" type="curve" smooth="yes"/>
      <point x="181" y="625"/>
      <point x="219" y="655"/>
      <point x="268" y="655" type="curve" smooth="yes"/>
      <point x="311" y="655"/>
      <point x="337" y="629"/>
      <point x="331" y="592" type="curve" smooth="yes"/>
      <point x="324" y="551"/>
      <point x="287" y="523"/>
    </contour>
    <contour>
      <point x="239" y="482" type="curve" smooth="yes"/>
      <point x="322" y="482"/>
      <point x="382" y="527"/>
      <point x="392" y="587" type="curve" smooth="yes"/>
      <point x="404" y="659"/>
      <point x="356" y="707"/>
      <point x="268" y="707" type="curve" smooth="yes"/>
      <point x="186" y="707"/>
      <point x="126" y="662"/>
      <point x="115" y="597" type="curve" smooth="yes"/>
      <point x="104" y="529"/>
      <point x="152" y="482"/>
    </contour>
  </outline>
</glyph>
<glyph name="five.numr" format="2">
  <advance width="369"/>
  <outline>
    <contour>
      <point x="196" y="273" type="curve" smooth="yes"/>
      <point x="278" y="273"/>
      <point x="347" y="328"/>
      <point x="360" y="407" type="curve" smooth="yes"/>
      <point x="374" y="493"/>
      <point x="321" y="544"/>
      <point x="249" y="544" type="curve" smooth="yes"/>
      <point x="192" y="544"/>
      <point x="140" y="508"/>
      <point x="115" y="476" type="curve"/>
      <point x="156" y="471" type="line"/>
      <point x="221" y="698" type="line"/>
      <point x="159" y="698" type="line"/>
      <point x="156" y="643" type="line"/>
      <point x="379" y="643" type="line"/>
      <point x="388" y="700" type="line"/>
      <point x="159" y="700" type="line"/>
      <point x="99" y="475" type="line"/>
      <point x="154" y="461" type="line"/>
      <point x="173" y="480"/>
      <point x="204" y="494"/>
      <point x="232" y="494" type="curve" smooth="yes"/>
      <point x="279" y="494"/>
      <point x="306" y="461"/>
      <point x="298" y="415" type="curve" smooth="yes"/>
      <point x="289" y="362"/>
      <point x="247" y="327"/>
      <point x="195" y="327" type="curve" smooth="yes"/>
      <point x="165" y="327"/>
      <point x="137" y="340"/>
      <point x="119" y="371" type="curve"/>
      <point x="63" y="351" type="line"/>
      <point x="82" y="299"/>
      <point x="142" y="273"/>
    </contour>
  </outline>
</glyph>
<glyph name="four.numr" format="2">
  <advance width="391"/>
  <outline>
    <contour>
      <point x="107" y="397" type="line"/>
      <point x="333" y="665" type="line"/>
      <point x="300" y="700" type="line"/>
      <point x="64" y="424" type="line"/>
    </contour>
    <contour>
      <point x="56" y="374" type="line"/>
      <point x="391" y="374" type="line"/>
      <point x="400" y="429" type="line"/>
      <point x="102" y="429" type="line"/>
      <point x="64" y="424" type="line"/>
    </contour>
    <contour>
      <point x="234" y="280" type="line"/>
      <point x="294" y="280" type="line"/>
      <point x="365" y="700" type="line"/>
      <point x="300" y="700" type="line"/>
      <point x="299" y="663" type="line"/>
    </contour>
  </outline>
</glyph>
<glyph name="l.ss02" format="2">
  <advance width="284"/>
  <anchor x="160" y="0" name="bottom"/>
  <anchor x="175" y="670" name="top"/>
  <anchor x="212" y="700" name="top_caron"/>
  <outline>
    <contour>
      <point x="162" y="-12" type="curve" smooth="yes"/>
      <point x="185" y="-12"/>
      <point x="206" y="-9"/>
      <point x="246" y="12" type="curve"/>
      <point x="226" y="66" type="line"/>
      <point x="193" y="46"/>
      <point x="181" y="43"/>
      <point x="163" y="43" type="curve" smooth="yes"/>
      <point x="123" y="43"/>
      <point x="105" y="72"/>
      <point x="114" y="126" type="curve" smooth="yes"/>
      <point x="210" y="700" type="line"/>
      <point x="150" y="700" type="line"/>
      <point x="55" y="130" type="line" smooth="yes"/>
      <point x="40" y="41"/>
      <point x="81" y="-12"/>
    </contour>
  </outline>
</glyph>
<glyph name="lslash.ss02" format="2">
  <advance width="321"/>
  <anchor x="195" y="0" name="bottom"/>
  <anchor x="210" y="670" name="top"/>
  <anchor x="247" y="700" name="top_caron"/>
  <outline>
    <contour>
      <point x="24" y="269" type="line"/>
      <point x="283" y="384" type="line"/>
      <point x="292" y="442" type="line"/>
      <point x="33" y="327" type="line"/>
    </contour>
    <component base="l.ss02" xOffset="35"/>
  </outline>
</glyph>
<glyph name="macroncomb.narrow" format="2">
  <anchor x="195" y="500" name="_top"/>
  <outline>
    <contour>
      <point x="80" y="580" type="line"/>
      <point x="330" y="580" type="line"/>
      <point x="339" y="637" type="line"/>
      <point x="89" y="637" type="line"/>
    </contour>
  </outline>
</glyph>
<glyph name="nine.numr" format="2">
  <advance width="353"/>
  <outline>
    <contour>
      <point x="162" y="273" type="curve" smooth="yes"/>
      <point x="269" y="273"/>
      <point x="339" y="365"/>
      <point x="362" y="504" type="curve" smooth="yes"/>
      <point x="380" y="613"/>
      <point x="355" y="707"/>
      <point x="238" y="707" type="curve" smooth="yes"/>
      <point x="154" y="707"/>
      <point x="88" y="653"/>
      <point x="75" y="576" type="curve" smooth="yes"/>
      <point x="61" y="494"/>
      <point x="110" y="434"/>
      <point x="193" y="434" type="curve" smooth="yes"/>
      <point x="246" y="434"/>
      <point x="293" y="462"/>
      <point x="320" y="509" type="curve"/>
      <point x="308" y="523" type="line"/>
      <point x="290" y="392"/>
      <point x="236" y="328"/>
      <point x="159" y="328" type="curve" smooth="yes"/>
      <point x="137" y="328"/>
      <point x="106" y="336"/>
      <point x="84" y="354" type="curve"/>
      <point x="46" y="311" type="line"/>
      <point x="76" y="287"/>
      <point x="118" y="273"/>
    </contour>
    <contour>
      <point x="201" y="486" type="curve" smooth="yes"/>
      <point x="152" y="486"/>
      <point x="128" y="522"/>
      <point x="136" y="568" type="curve" smooth="yes"/>
      <point x="144" y="617"/>
      <point x="188" y="653"/>
      <point x="237" y="653" type="curve" smooth="yes"/>
      <point x="285" y="653"/>
      <point x="311" y="618"/>
      <point x="304" y="575" type="curve" smooth="yes"/>
      <point x="295" y="523"/>
      <point x="252" y="486"/>
    </contour>
  </outline>
</glyph>
<glyph name="ogonekcomb.alt" format="2">
  <anchor x="108" y="33" name="_ogonek"/>
  <outline>
    <contour>
      <point x="61" y="-212" type="curve" smooth="yes"/>
      <point x="85" y="-212"/>
      <point x="118" y="-204"/>
      <point x="141" y="-193" type="curve"/>
      <point x="125" y="-145" type="line"/>
      <point x="108" y="-152"/>
      <point x="79" y="-157"/>
      <point x="55" y="-157" type="curve" smooth="yes"/>
      <point x="32" y="-157"/>
      <point x="15" y="-142"/>
      <point x="15" y="-121" type="curve" smooth="yes"/>
      <point x="15" y="-72"/>
      <point x="54" y="-8"/>
      <point x="108" y="33" type="curve"/>
      <point x="90" y="35" type="line"/>
      <point x="10" y="-4"/>
      <point x="-47" y="-76"/>
      <point x="-47" y="-137" type="curve" smooth="yes"/>
      <point x="-47" y="-181"/>
      <point x="-2" y="-212"/>
    </contour>
  </outline>
</glyph>
<glyph name="one.numr" format="2">
  <advance width="283"/>
  <outline>
    <contour>
      <point x="142" y="280" type="line"/>
      <point x="203" y="280" type="line"/>
      <point x="274" y="700" type="line"/>
      <point x="218" y="700" type="line"/>
      <point x="207" y="667" type="line"/>
    </contour>
    <contour>
      <point x="101" y="583" type="line"/>
      <point x="147" y="581"/>
      <point x="195" y="608"/>
      <point x="252" y="658" type="curve"/>
      <point x="217" y="700" type="line"/>
      <point x="187" y="670"/>
      <point x="136" y="638"/>
      <point x="110" y="639" type="curve"/>
    </contour>
  </outline>
</glyph>
<glyph name="one.tf" format="2">
  <advance width="620"/>
  <outline>
    <contour>
      <point x="98" y="0" type="line"/>
      <point x="477" y="0" type="line"/>
      <point x="487" y="57" type="line"/>
      <point x="108" y="57" type="line"/>
    </contour>
    <component base="one" xOffset="73"/>
  </outline>
</glyph>
<glyph name="six.numr" format="2">
  <advance width="354"/>
  <outline>
    <contour>
      <point x="195" y="273" type="curve" smooth="yes"/>
      <point x="280" y="273"/>
      <point x="346" y="327"/>
      <point x="359" y="405" type="curve" smooth="yes"/>
      <point x="373" y="486"/>
      <point x="322" y="546"/>
      <point x="240" y="546" type="curve" smooth="yes"/>
      <point x="187" y="546"/>
      <point x="141" y="518"/>
      <point x="114" y="471" type="curve"/>
      <point x="126" y="457" type="line"/>
      <point x="143" y="588"/>
      <point x="200" y="652"/>
      <point x="274" y="652" type="curve" smooth="yes"/>
      <point x="297" y="652"/>
      <point x="327" y="644"/>
      <point x="350" y="626" type="curve"/>
      <point x="388" y="669" type="line"/>
      <point x="358" y="693"/>
      <point x="315" y="707"/>
      <point x="271" y="707" type="curve" smooth="yes"/>
      <point x="166" y="707"/>
      <point x="95" y="616"/>
      <point x="72" y="478" type="curve" smooth="yes"/>
      <point x="54" y="370"/>
      <point x="76" y="273"/>
    </contour>
    <contour>
      <point x="196" y="327" type="curve" smooth="yes"/>
      <point x="151" y="327"/>
      <point x="122" y="359"/>
      <point x="130" y="406" type="curve" smooth="yes"/>
      <point x="139" y="457"/>
      <point x="182" y="494"/>
      <point x="232" y="494" type="curve" smooth="yes"/>
      <point x="279" y="494"/>
      <point x="306" y="460"/>
      <point x="298" y="414" type="curve" smooth="yes"/>
      <point x="290" y="363"/>
      <point x="246" y="327"/>
    </contour>
  </outline>
</glyph>
<glyph name="three.numr" format="2">
  <advance width="329"/>
  <outline>
    <contour>
      <point x="172" y="273" type="curve" smooth="yes"/>
      <point x="245" y="273"/>
      <point x="315" y="318"/>
      <point x="327" y="392" type="curve" smooth="yes"/>
      <point x="341" y="473"/>
      <point x="270" y="522"/>
      <point x="172" y="522" type="curve" smooth="yes"/>
      <point x="159" y="522" type="line"/>
      <point x="151" y="476" type="line"/>
      <point x="170" y="476" type="line" smooth="yes"/>
      <point x="241" y="476"/>
      <point x="273" y="449"/>
      <point x="267" y="407" type="curve" smooth="yes"/>
      <point x="261" y="362"/>
      <point x="222" y="328"/>
      <point x="169" y="328" type="curve" smooth="yes"/>
      <point x="132" y="328"/>
      <point x="116" y="347"/>
      <point x="105" y="370" type="curve"/>
      <point x="48" y="350" type="line"/>
      <point x="60" y="307"/>
      <point x="103" y="273"/>
    </contour>
    <contour>
      <point x="153" y="484" type="line"/>
      <point x="169" y="484" type="line" smooth="yes"/>
      <point x="260" y="484"/>
      <point x="339" y="521"/>
      <point x="351" y="592" type="curve" smooth="yes"/>
      <point x="362" y="658"/>
      <point x="311" y="707"/>
      <point x="234" y="707" type="curve" smooth="yes"/>
      <point x="181" y="707"/>
      <point x="127" y="682"/>
      <point x="99" y="636" type="curve"/>
      <point x="149" y="610" type="line"/>
      <point x="171" y="639"/>
      <point x="199" y="652"/>
      <point x="229" y="652" type="curve" smooth="yes"/>
      <point x="273" y="652"/>
      <point x="293" y="623"/>
      <point x="289" y="595" type="curve" smooth="yes"/>
      <point x="283" y="551"/>
      <point x="237" y="529"/>
      <point x="174" y="529" type="curve" smooth="yes"/>
      <point x="160" y="529" type="line"/>
    </contour>
  </outline>
</glyph>
<glyph name="two.numr" format="2">
  <advance width="359"/>
  <outline>
    <contour>
      <point x="109" y="303" type="line"/>
      <point x="116" y="348"/>
      <point x="150" y="380"/>
      <point x="189" y="406" type="curve" smooth="yes"/>
      <point x="271" y="460" type="line"/>
      <point x="324" y="496"/>
      <point x="355" y="533"/>
      <point x="363" y="581" type="curve" smooth="yes"/>
      <point x="375" y="653"/>
      <point x="325" y="707"/>
      <point x="237" y="707" type="curve" smooth="yes"/>
      <point x="163" y="707"/>
      <point x="102" y="659"/>
      <point x="80" y="603" type="curve"/>
      <point x="142" y="587" type="line"/>
      <point x="158" y="622"/>
      <point x="194" y="651"/>
      <point x="238" y="651" type="curve" smooth="yes"/>
      <point x="280" y="651"/>
      <point x="305" y="623"/>
      <point x="300" y="587" type="curve" smooth="yes"/>
      <point x="297" y="560"/>
      <point x="267" y="526"/>
      <point x="232" y="504" type="curve"/>
      <point x="144" y="446" type="line"/>
      <point x="91" y="411"/>
      <point x="59" y="370"/>
      <point x="52" y="330" type="curve"/>
    </contour>
    <contour>
      <point x="43" y="280" type="line"/>
      <point x="318" y="280" type="line"/>
      <point x="327" y="336" type="line"/>
      <point x="99" y="336" type="line"/>
      <point x="52" y="330" type="line"/>
    </contour>
  </outline>
</glyph>
<glyph name="zero.numr" format="2">
  <advance width="407"/>
  <outline>
    <contour>
      <point x="211" y="273" type="curve" smooth="yes"/>
      <point x="307" y="273"/>
      <point x="390" y="361"/>
      <point x="411" y="486" type="curve" smooth="yes"/>
      <point x="433" y="620"/>
      <point x="373" y="707"/>
      <point x="275" y="707" type="curve" smooth="yes"/>
      <point x="179" y="707"/>
      <point x="97" y="619"/>
      <point x="76" y="494" type="curve" smooth="yes"/>
      <point x="55" y="370"/>
      <point x="107" y="273"/>
    </contour>
    <contour>
      <point x="213" y="330" type="curve" smooth="yes"/>
      <point x="154" y="330"/>
      <point x="121" y="394"/>
      <point x="136" y="484" type="curve" smooth="yes"/>
      <point x="153" y="585"/>
      <point x="211" y="651"/>
      <point x="274" y="651" type="curve" smooth="yes"/>
      <point x="334" y="651"/>
      <point x="366" y="586"/>
      <point x="351" y="496" type="curve" smooth="yes"/>
      <point x="335" y="398"/>
      <point x="277" y="330"/>
    </contour>
  </outline>
</glyph>
<glyph name="zero.ss02" format="2">
  <advance width="638"/>
  <outline>
    <contour>
      <point x="103" y="159" type="line"/>
      <point x="144" y="125" type="line"/>
      <point x="568" y="529" type="line"/>
      <point x="539" y="576" type="line"/>
    </contour>
    <component base="zero"/>
  </outline>
</glyph>
<glyph name="zero.tf.ss02" format="2">
  <advance width="620"/>
  <outline>
    <contour>
      <point x="94" y="159" type="line"/>
      <point x="135" y="125" type="line"/>
      <point x="559" y="529" type="line"/>
      <point x="530" y="576" type="line"/>
    </contour>
    <component base="zero" xOffset="-9"/>
  </outline>
</glyph>
